<?xml version="1.0" encoding="iso-8859-1"?>
<!-- Generator: Adobe Illustrator 19.0.0, SVG Export Plug-In . SVG Version: 6.00 Build 0)  -->
<svg version="1.1" id="Layer_1" xmlns="http://www.w3.org/2000/svg" xmlns:xlink="http://www.w3.org/1999/xlink" x="0px" y="0px"
	 viewBox="0 0 512.003 512.003" style="enable-background:new 0 0 512.003 512.003;" xml:space="preserve">
<path style="fill:#FFB95C;" d="M442.985,346.293l-8.159,10.709l5.246,18.501c0,0-103.14,59.243-222.487-82.423
	c0,0-91.722-125.633-7.763-243.969c10.002-14.098,23.455-25.659,39.598-31.841c9.202-3.525,20.082-5.813,31.789-4.517l14.062,22.798
	l-6.367,33.603c-1.419,7.494-3.499,14.82-6.198,21.955c-8.142,21.534-24.842,77.63-1.098,127.438
	C314.18,286.875,395.41,329.402,442.985,346.293z"/>
<path style="fill:#FCAD2D;" d="M249.42,17.273c9.202-3.525,20.082-5.813,31.789-4.517l14.062,22.798
	c-12.588,33.189-68.652,123.942-41.202,187.406c43.035,99.498,136.066,124.813,181.969,132.45l-1.212,1.591l5.246,18.501
	c0,0-103.14,59.243-222.487-82.423c0,0-91.722-125.633-7.763-243.969C219.824,35.016,233.277,23.452,249.42,17.273z"/>
<polygon style="fill:#965B2F;" points="442.985,346.293 449.871,351.539 447.904,369.985 440.072,375.503 434.827,357.002 "/>
<path style="fill:#FFB95C;" d="M403.482,441.015l-12.005,10.624l1.85,22.827c0,0-134.177,45.352-240.836-147.728
	c0,0-78.094-167.962,47.338-286.781c14.94-14.156,33.335-24.551,53.618-28.04c11.561-1.989,24.803-2.148,38.172,2.077l11.156,29.884
	l-15.206,37.78c-3.392,8.428-7.514,16.502-12.316,24.214c-14.493,23.274-46.969,84.94-30.749,148.609
	C266.761,341.825,351.818,410.282,403.482,441.015z"/>
<path style="fill:#FCAD2D;" d="M253.45,11.92c11.561-1.989,24.803-2.148,38.172,2.077l11.156,29.884
	c-22.373,35.855-108.846,128.906-91.453,209.387c27.266,126.174,130.082,177.258,181.937,196.79l-1.785,1.581l1.85,22.827
	c0,0-134.177,45.352-240.836-147.728c0,0-78.094-167.962,47.338-286.781C214.773,25.804,233.167,15.41,253.45,11.92z"/>
<polygon style="fill:#965B2F;" points="403.482,441.015 410.312,448.733 403.75,469.826 393.33,474.466 391.477,451.639 "/>
<path style="fill:#FFB95C;" d="M283.065,481.39l-15.041,7.216l-4.646,23.371c0,0-147.186,7.18-198.941-216.402
	c0,0-30.321-190.316,129.029-273.503c18.981-9.908,40.346-15.076,61.637-12.792c12.138,1.299,25.432,4.915,37.608,12.948
	l2.654,33.079L269.401,88.78c-5.797,7.469-12.219,14.373-19.224,20.724c-21.129,19.162-71.189,71.626-73.085,139.958
	C174.495,343.199,240.114,435.928,283.065,481.39z"/>
<path style="fill:#FCAD2D;" d="M255.106,9.28c12.138,1.299,25.432,4.915,37.608,12.948l1.74,21.667
	c-67.505,29.518-147.971,87.169-150.223,194.904c-2.806,134.275,79.707,214.426,126.032,248.736l-2.236,1.072l-4.646,23.371
	c0,0-147.186,7.18-198.941-216.402c0,0-30.321-190.316,129.029-273.503C212.45,12.16,233.815,6.995,255.106,9.28z"/>
<polygon style="fill:#965B2F;" points="283.065,481.39 287.705,491.056 275.133,510.302 263.381,511.974 268.028,488.603 "/>
<polygon style="fill:#A9B135;" points="295.371,55.306 294.457,43.891 291.467,13.155 334.917,0 356.088,36.306 301.903,63.124 "/>
<polygon style="fill:#BEC142;" points="294.457,43.891 348.318,22.976 356.088,36.306 301.903,63.124 295.371,55.306 "/>
<g>
</g>
<g>
</g>
<g>
</g>
<g>
</g>
<g>
</g>
<g>
</g>
<g>
</g>
<g>
</g>
<g>
</g>
<g>
</g>
<g>
</g>
<g>
</g>
<g>
</g>
<g>
</g>
<g>
</g>
</svg>
