<?xml version="1.0" encoding="utf-8"?>
<!-- Generator: Adobe Illustrator 18.0.0, SVG Export Plug-In . SVG Version: 6.00 Build 0)  -->
<!DOCTYPE svg PUBLIC "-//W3C//DTD SVG 1.1//EN" "http://www.w3.org/Graphics/SVG/1.1/DTD/svg11.dtd">
<svg version="1.1" id="Layer_1" xmlns="http://www.w3.org/2000/svg" xmlns:xlink="http://www.w3.org/1999/xlink" x="0px" y="0px"
	 width="800px" height="600px" viewBox="0 0 800 600" enable-background="new 0 0 800 600" xml:space="preserve">
<g>
	<!--<rect fill="gray" width="800" height="600"/>-->
	<g>
		<defs>
			<rect id="SVGID_1_" x="0" width="800" height="600"/>
		</defs>
		<clipPath id="SVGID_2_">
			<use xlink:href="#SVGID_1_"  overflow="visible"/>
		</clipPath>
		<g clip-path="url(#SVGID_2_)">
			<g>
				<path fill="#396955" stroke="#183E1D" stroke-width="2" stroke-miterlimit="10" d="M569.8,388.5c-6.4,16.2,20.8,49.4,22.5,54.2
					c1.7,4.8,2.6,18,2.6,18s27.9-25.8,24.6-38.5c-3.3-12.7-9.6-31.5-6.5-36.6l0,0C598.2,381.3,569.8,388.5,569.8,388.5z"/>
				<path fill="#929B6F" stroke="#183E1D" stroke-width="2" stroke-linejoin="round" stroke-miterlimit="10" d="M588.5,385.1
					c1,8.2,11,30.8,13.3,38.8c2.3,8-7,36.7-7,36.7s11.5-18.2,11.2-36.4c-0.1-5.4-11.7-39.7-11.7-39.7L588.5,385.1z"/>
				<path fill="#447862" stroke="#183E1D" stroke-width="2" stroke-miterlimit="10" d="M814.3,593.6c8.6-10.1,27-33.8,31.7-43.8
					c-6.5-11-13.2-27.5-17.4-35.9c-13.9-28.3-47.3-46.8-55.1-59.3c-7.8-12.5-13.5-39.4-26.8-51.3c-1.5-1.3-3-2.6-4.6-3.9
					c-1,7-2.2,14.2-3.1,17.4c-1.8,7-21.7,26.7-21.7,26.7s13.9-16.6,16.7-25c1.4-4.3,2.3-14.5,2.8-23.2c-11.9-8.9-21.2-19.9-29.5-31
					c-10.5-14.2-30-15.6-46.1-19.3c-16.1-3.7-46,2.1-63.7,13.2c-17.7,11-24.2,18.9-27.6,30.3c0,0,41.2-10.3,50.2,1.4
					c9,11.7,13.8,39.6,36.4,58.2c17,14,21.6,41.6,25.6,62.8c7.8,1.1,18.2,2.4,23.1,2.6c8.4,0.3,34.4-5.5,34.4-5.5s-21,9-28.8,10
					c-4.8,0.6-17.8,0.2-27.2-0.1c0.9,4.3,1.8,8.1,2.9,11.3c2.1,6.2,4.3,12.8,6.9,19.4c7.3-0.3,18.3-1,26.6-2.8
					c13.5-2.9,34.1-10.9,34.1-10.9l1.6,2.9c0,0-31.5,10-38.5,12.4c-4.3,1.5-14.4,2.9-21.6,3.9c5.5,12.1,13.4,23.4,26.8,30.8
					c22.6,12.5,27.7,43.6,41.1,49.8c11,5.1,40.3,7.1,69-22.8c15.2-15.9,23.9-40.9,16.6-56.1C839.6,568.7,814.3,593.6,814.3,593.6z"
					/>
				<path fill="#A0A879" stroke="#183E1D" stroke-width="2" stroke-miterlimit="10" d="M834.1,640.5c0,0-40.9-42.1-66.2-82
					c-25.3-39.9-80.1-156-105.3-177c-19.2-16-55.1-19.5-66.9-20.2c-3.7-0.2,1.7-3.2,1.7-3.2s36.5-7.6,73.4,22.7
					c36.9,30.3,96.8,158.4,111.9,177.8c15.1,19.3,57.1,61.4,66.9,68.4C849.5,627,854.3,641,834.1,640.5z"/>
				<path fill="none" stroke="#183E1D" stroke-width="2" stroke-miterlimit="10" d="M798,599.7c0,0-13.5,10-20,13.3
					c-6.5,3.3-26,8.9-26,8.9"/>
				<path fill="none" stroke="#183E1D" stroke-width="2" stroke-miterlimit="10" d="M795.3,573.3c0,0,13.4-18.2,19.3-30.3
					c5.9-12.1,12.4-32.4,12.4-32.4"/>
				<path fill="none" stroke="#183E1D" stroke-width="2" stroke-miterlimit="10" d="M789.6,566.9c0,0,11.7-11.6,13.9-19.5
					c2.2-7.9,18.6-44.3,18.6-44.3"/>
				<path fill="none" stroke="#183E1D" stroke-width="2" stroke-miterlimit="10" d="M782.7,558.6c0,0,7.2-12.9,11.9-22.4
					c4.7-9.5,19.4-43.2,19.4-43.2"/>
				<path fill="none" stroke="#183E1D" stroke-width="2" stroke-miterlimit="10" d="M807.4,486.3c0,0-13.1,15.1-15.9,26.2
					c-2.9,11-13.6,38.9-13.6,38.9"/>
				<path fill="none" stroke="#183E1D" stroke-width="2" stroke-miterlimit="10" d="M772.6,542.3c0,0,6.3-15.7,9.3-25.4
					c3-9.7,16.5-39,16.5-39"/>
				<path fill="none" stroke="#183E1D" stroke-width="2" stroke-miterlimit="10" d="M766.5,531.5c0,0,9.4-18.7,16.4-28.8
					s8.7-30.6,8.7-30.6"/>
				<path fill="none" stroke="#183E1D" stroke-width="2" stroke-miterlimit="10" d="M762.2,523.7c0,0,6.7-19.6,12.2-28.4
					c5.5-8.7,10.8-28.6,10.8-28.6"/>
				<path fill="none" stroke="#183E1D" stroke-width="2" stroke-miterlimit="10" d="M755.4,511.1c0,0,9.8-18,13.4-27.1
					s10.1-23.1,10.1-23.1"/>
				<path fill="none" stroke="#183E1D" stroke-width="2" stroke-miterlimit="10" d="M750.4,502c0,0,3.3-16.6,7.9-26.1
					s12.6-26.2,12.6-26.2"/>
				<path fill="none" stroke="#183E1D" stroke-width="2" stroke-miterlimit="10" d="M744.6,491.4c0,0,5.2-13.8,9.3-24.7
					s11.6-29.4,11.6-29.4"/>
				<path fill="none" stroke="#183E1D" stroke-width="2" stroke-miterlimit="10" d="M739.6,482.3c0,0,8.8-18.6,13.2-29.1
					c4.5-10.5,7.9-27.8,7.9-27.8"/>
				<path fill="none" stroke="#183E1D" stroke-width="2" stroke-miterlimit="10" d="M733.7,471.7c0,0,7-12.1,12.6-18.8
					c5.6-6.7,13.3-29.9,13.3-29.9"/>
				<path fill="none" stroke="#183E1D" stroke-width="2" stroke-miterlimit="10" d="M729.3,464c0,0,6.8-14.8,12.6-23.9
					c5.8-9.1,13.3-25.7,13.3-25.7"/>
				<path fill="none" stroke="#183E1D" stroke-width="2" stroke-miterlimit="10" d="M749.2,404.8c0,0-4.7,11.4-7.8,19.6
					S724.2,455,724.2,455"/>
				<path fill="none" stroke="#183E1D" stroke-width="2" stroke-miterlimit="10" d="M713.1,436.5c0,0,3.7-12.8,9.9-19.8
					s8.6-25.6,8.6-25.6"/>
				<path fill="none" stroke="#183E1D" stroke-width="2" stroke-miterlimit="10" d="M707,426.8c0,0,2.7-11.8,6.7-19.8
					c4-8,11.7-21.4,11.7-21.4"/>
				<path fill="none" stroke="#183E1D" stroke-width="2" stroke-miterlimit="10" d="M701.6,418.5c0,0,5.4-11.5,9.2-20.2
					s6-22.1,6-22.1"/>
				<path fill="none" stroke="#183E1D" stroke-width="2" stroke-miterlimit="10" d="M696.2,410.6c0,0,2-8.2,6.8-17.3
					c4.7-9.1,6.4-26.2,6.4-26.2"/>
				<path fill="none" stroke="#183E1D" stroke-width="2" stroke-miterlimit="10" d="M688.9,400.7c0,0,3.5-14.7,6.6-23.2
					c3.2-8.5,6.3-18.9,6.3-18.9"/>
				<path fill="none" stroke="#183E1D" stroke-width="2" stroke-miterlimit="10" d="M683,393.2c0,0,0.1-12.2,1.4-21.4
					s4.2-20.4,4.2-20.4"/>
				<path fill="none" stroke="#183E1D" stroke-width="2" stroke-miterlimit="10" d="M677.5,348.4c0,0,0.8,15.3,0.3,19.9
					c-0.5,4.7-2.8,16.3-2.8,16.3"/>
				<path fill="none" stroke="#183E1D" stroke-width="2" stroke-miterlimit="10" d="M664.4,345.7c0,0,6.3,12.4,6.3,18.2
					s0.1,17,0.1,17"/>
				<path fill="none" stroke="#183E1D" stroke-width="2" stroke-miterlimit="10" d="M663.9,375.6c0,0-3.6-12.2-4.7-17.8
					c-1.1-5.6-4.7-13.7-4.7-13.7"/>
				<path fill="none" stroke="#183E1D" stroke-width="2" stroke-miterlimit="10" d="M647,343.9c0,0,3.5,6.1,5.1,11.6
					c1.6,5.5,4.8,15.5,4.8,15.5"/>
				<path fill="none" stroke="#183E1D" stroke-width="2" stroke-miterlimit="10" d="M639,344.5c0,0,2.3,14.7,8.9,21.8"/>
				<path fill="none" stroke="#183E1D" stroke-width="2" stroke-miterlimit="10" d="M639.4,362.8c0,0-2.7-6.8-3.4-10
					c-0.7-3.2-0.3-7.8-0.3-7.8"/>
				<path fill="none" stroke="#183E1D" stroke-width="2" stroke-miterlimit="10" d="M630.2,360c0,0-4.2-5.5-4.7-13.6"/>
				<path fill="none" stroke="#183E1D" stroke-width="2" stroke-miterlimit="10" d="M622.2,358.4c0,0-5-4.3,0-10.6"/>
				<path fill="none" stroke="#183E1D" stroke-width="2" stroke-miterlimit="10" d="M615.1,357.5c0,0-1.1-2.8,1.8-8.2"/>
				<path fill="none" stroke="#183E1D" stroke-width="2" stroke-miterlimit="10" d="M747.3,613.6c0,0,10.6-5.6,18.9-8.4
					s27.6-10.8,27.6-10.8"/>
				<path fill="none" stroke="#183E1D" stroke-width="2" stroke-miterlimit="10" d="M790.1,589.8c0,0-11.7,3-20.6,5
					c-8.9,2-27.8,9.5-27.8,9.5"/>
				<path fill="none" stroke="#183E1D" stroke-width="2" stroke-miterlimit="10" d="M738,598.9c0,0,16.5-6.1,23.5-8.1
					c7-2,23.2-8.1,23.2-8.1"/>
				<path fill="none" stroke="#183E1D" stroke-width="2" stroke-miterlimit="10" d="M780.2,576.6c0,0-12.3,4.3-18,6.2
					c-5.7,1.9-30.4,9-30.4,9"/>
				<path fill="none" stroke="#183E1D" stroke-width="2" stroke-miterlimit="10" d="M726.1,587.2c0,0,16.4-5.4,26-8.9
					c9.6-3.5,24.3-6.8,24.3-6.8"/>
				<path fill="none" stroke="#183E1D" stroke-width="2" stroke-miterlimit="10" d="M771.8,564.6c0,0-16.5,4.3-23.5,5.8
					s-31.5,10.8-31.5,10.8"/>
				<path fill="none" stroke="#183E1D" stroke-width="2" stroke-miterlimit="10" d="M709.4,574.9c0,0,16-4.6,26-6.9
					c10.1-2.3,32.4-9.5,32.4-9.5"/>
				<path fill="none" stroke="#183E1D" stroke-width="2" stroke-miterlimit="10" d="M764.6,553.2c0,0-10.5,2.2-20.5,5.1
					s-39.2,11.4-39.2,11.4"/>
				<path fill="none" stroke="#183E1D" stroke-width="2" stroke-miterlimit="10" d="M701.5,564.8c0,0,17.3-5.8,28.7-8.9
					c11.4-3.1,29.5-11.1,29.5-11.1"/>
				<path fill="none" stroke="#183E1D" stroke-width="2" stroke-miterlimit="10" d="M691,542.6c0,0,15.1-1,23.1-2.3
					c7.9-1.3,37.6-9.6,37.6-9.6"/>
				<path fill="none" stroke="#183E1D" stroke-width="2" stroke-miterlimit="10" d="M749.1,525.9c0,0-19.7,6.2-27.6,7.9
					c-7.9,1.7-31.9,4.9-31.9,4.9"/>
				<path fill="none" stroke="#183E1D" stroke-width="2" stroke-miterlimit="10" d="M687.7,533.2c0,0,14.7-4.2,23.9-5
					s35.7-5.4,35.7-5.4"/>
				<path fill="none" stroke="#183E1D" stroke-width="2" stroke-miterlimit="10" d="M745,518.5c0,0-28.7,4.9-34.4,5.1
					c-5.8,0.1-25.8,1-25.8,1"/>
				<path fill="none" stroke="#183E1D" stroke-width="2" stroke-miterlimit="10" d="M680.6,503.4c0,0,18.7,4.2,27.8,2.8
					s28-3.9,28-3.9"/>
				<path fill="none" stroke="#183E1D" stroke-width="2" stroke-miterlimit="10" d="M679.7,499c0,0,10.9,1,21.4-0.7
					c10.5-1.8,32.1-1.8,32.1-1.8"/>
				<path fill="none" stroke="#183E1D" stroke-width="2" stroke-miterlimit="10" d="M678.3,492.2c0,0,18.1-0.1,26-1.7
					c7.9-1.6,23.9-3.5,23.9-3.5"/>
				<path fill="none" stroke="#183E1D" stroke-width="2" stroke-miterlimit="10" d="M676.4,484.8c0,0,18.4-2.8,26.2-2.5
					c7.9,0.3,22.1-1.5,22.1-1.5"/>
				<path fill="none" stroke="#183E1D" stroke-width="2" stroke-miterlimit="10" d="M674.5,478.1c0,0,9.4-4.6,20-6.9
					c10.6-2.3,24.6-1.1,24.6-1.1"/>
				<path fill="none" stroke="#183E1D" stroke-width="2" stroke-miterlimit="10" d="M715.4,463.4c0,0-22.1,2.9-28.7,4.5
					c-6.6,1.6-15.2,1.7-15.2,1.7"/>
				<path fill="none" stroke="#183E1D" stroke-width="2" stroke-miterlimit="10" d="M667.7,462.2c0,0,14.5-3.4,22.9-3.9
					c8.4-0.5,21.9-0.1,21.9-0.1"/>
				<path fill="none" stroke="#183E1D" stroke-width="2" stroke-miterlimit="10" d="M707.2,448.6c0,0-14.5,0.8-22,2.8
					c-7.5,2-20.2,6.9-20.2,6.9"/>
				<path fill="none" stroke="#183E1D" stroke-width="2" stroke-miterlimit="10" d="M660.9,452.4c0,0,14.5-3.1,22.9-5.9
					c8.4-2.8,20.6-3,20.6-3"/>
				<path fill="none" stroke="#183E1D" stroke-width="2" stroke-miterlimit="10" d="M701,437.5c0,0-21.6-0.2-28.6,1.1
					c-7,1.3-20.8,5.1-20.8,5.1"/>
				<path fill="none" stroke="#183E1D" stroke-width="2" stroke-miterlimit="10" d="M643.5,434.3c0,0,10.3-3.7,21.6-3.3
					c11.3,0.4,30.2-3.5,30.2-3.5"/>
				<path fill="none" stroke="#183E1D" stroke-width="2" stroke-miterlimit="10" d="M691,420.5c0,0-17.1,3.4-23.8,4.3
					s-27.7,3.6-27.7,3.6"/>
				<path fill="none" stroke="#183E1D" stroke-width="2" stroke-miterlimit="10" d="M636.8,423.6c0,0,11.3-3.6,23.6-6.5
					c12.3-2.9,27.2-2.2,27.2-2.2"/>
				<path fill="none" stroke="#183E1D" stroke-width="2" stroke-miterlimit="10" d="M684.5,409.9c0,0-10.8-2.4-21-1.8
					c-10.1,0.6-31,7.2-31,7.2"/>
				<path fill="none" stroke="#183E1D" stroke-width="2" stroke-miterlimit="10" d="M630,409.7c0,0,17.1-7.6,27-9.3
					c9.9-1.7,20.7-0.7,20.7-0.7"/>
				<path fill="none" stroke="#183E1D" stroke-width="2" stroke-miterlimit="10" d="M673.2,393.3c0,0-17.7,2.7-23.7,3.7
					s-21.8,5.9-21.8,5.9"/>
				<path fill="none" stroke="#183E1D" stroke-width="2" stroke-miterlimit="10" d="M624.9,398.4c0,0,8.4-6.1,16.8-8.1
					c8.4-1.9,23.6-5.8,23.6-5.8"/>
				<path fill="none" stroke="#183E1D" stroke-width="2" stroke-miterlimit="10" d="M659.7,379.3c0,0-11.1,2.2-19,4.2
					s-19,8.8-19,8.8"/>
				<path fill="none" stroke="#183E1D" stroke-width="2" stroke-miterlimit="10" d="M616.5,387c0,0,7.6-6.3,14-8.6
					c6.5-2.2,17.3-5.9,17.3-5.9"/>
				<path fill="none" stroke="#183E1D" stroke-width="2" stroke-miterlimit="10" d="M641.8,370.2c0,0-9.7,3.2-15.8,5.4
					c-6.1,2.3-20,8.8-20,8.8"/>
				<path fill="none" stroke="#183E1D" stroke-width="2" stroke-miterlimit="10" d="M600.6,384.3c0,0,16.7-13.8,30.9-17.3"/>
				<path fill="none" stroke="#183E1D" stroke-width="2" stroke-miterlimit="10" d="M594.3,384.5c0,0,14.5-17.2,25.2-20.9"/>
				<path fill="none" stroke="#183E1D" stroke-width="2" stroke-miterlimit="10" d="M583.6,385.8c0,0,14.2-17.5,29.8-22.6"/>
				<path fill="none" stroke="#183E1D" stroke-width="2" stroke-miterlimit="10" d="M576.9,386.9c0,0,4.5-10.3,9.5-15.5
					c5.1-5.2,16.1-9.6,16.1-9.6"/>
				<path fill="none" stroke="#183E1D" stroke-width="2" stroke-miterlimit="10" d="M589.1,388.2c0,0-14.1,9.6-19.3,12.7"/>
				<path fill="none" stroke="#183E1D" stroke-width="2" stroke-miterlimit="10" d="M571.7,407.2c0,0,15.7-3.2,19.6-11.5"/>
				<path fill="none" stroke="#183E1D" stroke-width="2" stroke-miterlimit="10" d="M576.2,416.5c0,0,6.6-4.1,9.5-7.1
					c2.9-3.1,7.5-8.4,7.5-8.4"/>
				<path fill="none" stroke="#183E1D" stroke-width="2" stroke-miterlimit="10" d="M581.1,425c0,0,11.6-8.1,14.9-16.7"/>
				<path fill="none" stroke="#183E1D" stroke-width="2" stroke-miterlimit="10" d="M585.3,431.5c0,0,1-4.8,5.3-9
					c4.3-4.3,7.6-9.2,7.6-9.2"/>
				<path fill="none" stroke="#183E1D" stroke-width="2" stroke-miterlimit="10" d="M600.3,419.5c0,0-5.9,14.9-9.1,21.1"/>
				<path fill="none" stroke="#183E1D" stroke-width="2" stroke-miterlimit="10" d="M605.2,433.8c0,0,1.7,8.7,3.9,11.4"/>
				<path fill="none" stroke="#183E1D" stroke-width="2" stroke-miterlimit="10" d="M606.1,424.2c0,0,2.8,8.6,4.1,9.8
					s3.6,4.8,3.6,4.8"/>
				<path fill="none" stroke="#183E1D" stroke-width="2" stroke-miterlimit="10" d="M604,414.1c0,0,6.3,7.5,8.1,10.3
					c1.8,2.9,6,6.9,6,6.9"/>
				<path fill="none" stroke="#183E1D" stroke-width="2" stroke-miterlimit="10" d="M601.8,406.3c0,0,8.2,9.1,16.7,12.5"/>
				<line fill="none" stroke="#183E1D" stroke-width="2" stroke-miterlimit="10" x1="599.6" y1="400" x2="615.3" y2="407.2"/>
				<path fill="none" stroke="#183E1D" stroke-width="2" stroke-miterlimit="10" d="M597.4,393.6c0,0,11.3,1.9,16.3,7.4"/>
				<line fill="none" stroke="#183E1D" stroke-width="2" stroke-miterlimit="10" x1="595.2" y1="387.1" x2="612.2" y2="391"/>
			</g>
			<g>
				<path fill="#6BA47D" stroke="#0F6032" stroke-width="2" stroke-miterlimit="10" d="M840.1,712.6c-14-5.2-38.2,4.5-59.8,0.6
					c-2.6-0.5-5.4-1.3-8.5-2.5l0-0.1c0,0,18.9-14.2,23.7-17.8c4.8-3.5,20.2-18.1,20.2-18.1s-23.4,15.4-33.6,23.1
					c-10.1,7.7-15.4,10.7-15.4,10.7c-22.9-9.9-54.5-32.1-66.1-41.6c-14.3-11.6-39.1-16.8-52.5-27.4c-11.9-9.4-32.9-40.6-61.2-56.4
					c3.4-1.8,6.7-3.3,9-4c6.6-2,29.1-7.1,29.1-7.1l-14.9-10.4c0,0-13.5,3.2-24.3,5.1c-5.6,1-13.2,4.2-19.1,7.1
					c-17.6-9.3-30-23.5-37.6-32.2c-8.8-10.2-25.2-20.1-25.2-20.1c20.3-14.1,51.8-33.3,80.4-21.6c28,11.5,36.1-0.3,61.8,11.8
					c16.4,7.8,42.1,10.7,64.2,16.1c4,9.7,9.6,23.8,13.5,36.4c6.6,21.7,5.2,20.5,14.3,40c9.1,19.5,12.5,41.9,12.5,41.9l5.6,2.2
					c0,0-5.3-25.7-12-40.9c-5.3-11.8-18.4-57-24-76.9c8.5,2.6,16.2,5.9,21.9,10.2c21.9,16.6,41.9,38,60.8,42.6
					c18.8,4.5,41.1,12.3,54,34.4c12.8,22.1,13.8,16.2,18.3,32.1c4.5,15.8,3.6,35.9,3.6,35.9l-6.7,12
					C872,697.6,854,717.8,840.1,712.6z"/>
				<path fill="#BECC91" stroke="#0D6132" stroke-width="2" stroke-miterlimit="10" d="M503.8,521.5c0,0,50.3,1.8,81.7,17.2
					c31.4,15.4,138.8,91.8,159.9,104.8c21.1,12.9,92.4,20.2,112.4,30.3c20,10.2,38.7,24.8,46.4,22.8c0,0,8.5,9.6,0.8,19.3
					c0,0-25.2-11.7-45-26.5c-19.7-14.7-86.7-18.1-117.5-36.3c-30.8-18.2-134.5-94.1-158.6-108.8
					C560.1,529.6,503.8,521.5,503.8,521.5z"/>
				<path fill="none" stroke="#0D6132" stroke-width="2" stroke-miterlimit="10" d="M620.5,610.5c0,0,6.9-1.7,17.2-5
					s27.8-5.5,27.8-5.5"/>
				<path fill="none" stroke="#0D6132" stroke-width="2" stroke-miterlimit="10" d="M611.4,601.6c0,0,15.7-1.2,23.3-3.9
					s18.4-5.7,18.4-5.7"/>
				<path fill="none" stroke="#0D6132" stroke-width="2" stroke-miterlimit="10" d="M605.1,595.9c0,0,9.2-2.5,19.4-5.4
					c10.3-2.8,21.7-3.5,21.7-3.5"/>
				<path fill="none" stroke="#0D6132" stroke-width="2" stroke-miterlimit="10" d="M598.2,590.5c0,0,17-2.5,22.5-5.5s16-4.8,16-4.8
					"/>
				<path fill="none" stroke="#0D6132" stroke-width="2" stroke-miterlimit="10" d="M590.1,585.1c0,0,9.8-4.1,18.6-6
					c8.8-1.8,22-3,22-3"/>
				<path fill="none" stroke="#0D6132" stroke-width="2" stroke-miterlimit="10" d="M561.6,571c0,0,12.7-6.2,22.9-8.1
					c10.1-1.9,21.4-4,21.4-4"/>
				<path fill="none" stroke="#0D6132" stroke-width="2" stroke-miterlimit="10" d="M553.1,565.2c0,0,15.6-5.6,22.2-7.6
					c6.6-2,19-6.7,19-6.7"/>
				<path fill="none" stroke="#0D6132" stroke-width="2" stroke-miterlimit="10" d="M543.9,557.4c0,0,11-0.8,19.6-3.7
					c8.5-2.9,22.5-8.3,22.5-8.3"/>
				<path fill="none" stroke="#0D6132" stroke-width="2" stroke-miterlimit="10" d="M539,552.6c0,0,8.5-6.7,18.6-7.3
					c10.1-0.6,21.4-3.7,21.4-3.7"/>
				<path fill="none" stroke="#0D6132" stroke-width="2" stroke-miterlimit="10" d="M532.7,545.9c0,0,7.6-4,13-5.6
					c5.4-1.6,18.1-4.9,18.1-4.9"/>
				<path fill="none" stroke="#0D6132" stroke-width="2" stroke-miterlimit="10" d="M527.1,539.5c0,0,20.8-9,23.9-8.1"/>
				<path fill="none" stroke="#0D6132" stroke-width="2" stroke-miterlimit="10" d="M521.8,534.5c0,0,14.3-7,20.3-5.5"/>
				<path fill="none" stroke="#0D6132" stroke-width="2" stroke-miterlimit="10" d="M515.5,529.5c0,0,5.7-5.1,12.3-3.7"/>
				<path fill="none" stroke="#0D6132" stroke-width="2" stroke-miterlimit="10" d="M514.1,514.6c0,0,12,8.6,20.7,10"/>
				<path fill="none" stroke="#0D6132" stroke-width="2" stroke-miterlimit="10" d="M521.5,510.2c0,0,10.5,6.9,13.2,10.9
					c2.7,3.9,13.2,5.8,13.2,5.8"/>
				<path fill="none" stroke="#0D6132" stroke-width="2" stroke-miterlimit="10" d="M533.7,503.9c0,0,6.7,7.3,11.7,13.3
					c5,6,13.3,12,13.3,12"/>
				<path fill="none" stroke="#0D6132" stroke-width="2" stroke-miterlimit="10" d="M546.2,499.2c0,0,8.8,14.4,14.7,21.1
					c5.8,6.7,15.7,14.4,15.7,14.4"/>
				<path fill="none" stroke="#0D6132" stroke-width="2" stroke-miterlimit="10" d="M554.2,497.3c0,0,10.1,18.7,14.8,24.7
					c4.8,6,16.5,16.6,16.5,16.6"/>
				<path fill="none" stroke="#0D6132" stroke-width="2" stroke-miterlimit="10" d="M566.7,496.3c0,0,5.5,18.6,8.6,23
					c3.1,4.3,17.7,23.5,17.7,23.5"/>
				<path fill="none" stroke="#0D6132" stroke-width="2" stroke-miterlimit="10" d="M577.7,497.7c0,0,6.6,15.2,10.9,26
					c4.3,10.8,13,24,13,24"/>
				<path fill="none" stroke="#0D6132" stroke-width="2" stroke-miterlimit="10" d="M590.8,502.3c0,0,1.8,11.4,10.6,27.3
					c8.7,15.9,16.7,28.4,16.7,28.4"/>
				<path fill="none" stroke="#0D6132" stroke-width="2" stroke-miterlimit="10" d="M601.1,504.7c0,0,7,15.6,15.9,32.4
					s14.5,28.9,14.5,28.9"/>
				<path fill="none" stroke="#0D6132" stroke-width="2" stroke-miterlimit="10" d="M608.7,505.4c0,0,8.8,15.1,15.9,31
					s19.9,38.4,19.9,38.4"/>
				<path fill="none" stroke="#0D6132" stroke-width="2" stroke-miterlimit="10" d="M621.4,505.6c0,0,5.1,21.1,12.5,31.5
					c7.3,10.4,17,25.6,20.7,34.3s13.9,20,13.9,20"/>
				<path fill="none" stroke="#0D6132" stroke-width="2" stroke-miterlimit="10" d="M631.5,506.7c0,0-1.3,6.7,10.2,28
					s32.8,60.7,32.8,60.7"/>
				<path fill="none" stroke="#0D6132" stroke-width="2" stroke-miterlimit="10" d="M642.6,510.1c0,0,3,12.3,8.6,24.8
					s12.4,18.1,18.6,31.9c6.2,13.8,18,37.6,18,37.6"/>
				<path fill="none" stroke="#0D6132" stroke-width="2" stroke-miterlimit="10" d="M654.7,515.1c0,0,7.4,22.1,12.9,32.5
					c5.5,10.4,17,27,22.8,38.4c5.8,11.5,8.1,25.8,8.1,25.8"/>
				<path fill="none" stroke="#0D6132" stroke-width="2" stroke-miterlimit="10" d="M663.9,517.8c0,0,2.8,5,9.4,20.4
					c6.6,15.4,12.7,20.3,19.7,38.2c7,17.9,15.8,42.4,15.8,42.4"/>
				<path fill="none" stroke="#0D6132" stroke-width="2" stroke-miterlimit="10" d="M681.2,521.7c0,0,2.7,19.6,9.2,32.2
					s18.7,34.2,21.5,43.5c2.8,9.3,7.8,28.9,7.8,28.9"/>
				<path fill="none" stroke="#0D6132" stroke-width="2" stroke-miterlimit="10" d="M693.7,524.2c0,0,5.1,22.1,12.9,40.8
					s13.8,24.3,20.3,39.9c6.5,15.6,6.1,30.4,6.1,30.4"/>
				<path fill="none" stroke="#0D6132" stroke-width="2" stroke-miterlimit="10" d="M704.3,526.9c0,0,4.4,17.2,9.2,31.5
					c4.8,14.3,21.2,49,24.6,61.3c3.4,12.3,7.4,23.7,7.4,23.7"/>
				<path fill="none" stroke="#0D6132" stroke-width="2" stroke-miterlimit="10" d="M725.2,532.1c0,0,5.5,12.1,11.3,34.4
					s12.1,36.3,17.7,50.6c5.6,14.2,8.8,33.4,8.8,33.4"/>
				<path fill="none" stroke="#0D6132" stroke-width="2" stroke-miterlimit="10" d="M766.7,651.6c0,0-0.1-20.3-5.8-39.1
					s-17-70.3-17-70.3"/>
				<path fill="none" stroke="#0D6132" stroke-width="2" stroke-miterlimit="10" d="M761.6,556.6c0,0,0.1,17.6,4.2,33.8
					s13.4,41.4,14.4,64.5"/>
				<path fill="none" stroke="#0D6132" stroke-width="2" stroke-miterlimit="10" d="M774.5,567.3c0,0-0.6,12,2.2,26.4
					c2.8,14.4,11.3,28.2,12.6,38.6c1.3,10.4,0.6,24.8,0.6,24.8"/>
				<path fill="none" stroke="#0D6132" stroke-width="2" stroke-miterlimit="10" d="M781,572.1c0,0,2.3,19.3,8.4,35.4
					c6.1,16.2,9.1,51.3,9.1,51.3"/>
				<path fill="none" stroke="#0D6132" stroke-width="2" stroke-miterlimit="10" d="M789.6,577.7c0,0,3.6,24.2,9.6,37.8
					c6,13.5,8.3,45.3,8.3,45.3"/>
				<path fill="none" stroke="#0D6132" stroke-width="2" stroke-miterlimit="10" d="M819.2,663.1c0,0-5.6-12.7-7.3-26
					c-1.7-13.3-11.2-35.9-12.7-54.9"/>
			</g>
			<g>
				<path fill="#6BA47D" stroke="#0F6032" stroke-width="2" stroke-miterlimit="10" d="M885.8,395c-9.3-11.7-35.1-15.7-51.6-30.2
					c-2-1.7-4-3.9-6.1-6.5l0.1,0c0,0,23.6-2.5,29.4-3.1c5.9-0.6,26.6-5.2,26.6-5.2s-28,1.2-40.7,2.6c-12.6,1.4-18.7,1.3-18.7,1.3
					c-14.6-20.3-30.2-55.5-35.4-69.7c-6.3-17.3-24.9-34.4-31-50.4c-5.4-14.2-7.4-51.7-23.5-79.9c3.8,0.2,7.5,0.6,9.8,1.2
					c6.7,1.7,28.6,8.8,28.6,8.8l-7.5-16.6c0,0-13.2-4.1-23.5-8.1c-5.3-2-13.5-3.1-20-3.7c-10.4-17-13.7-35.6-15.7-47
					c-2.3-13.3-11.3-30.2-11.3-30.2c24.7-1.7,61.5-2,80.1,22.8c18.1,24.2,31.2,18.3,47,41.9c10.1,15.1,30.7,30.8,46.9,46.8
					c-1.5,10.4-3.9,25.4-7.1,38.1c-5.5,22-6.1,20.3-8.3,41.7c-2.2,21.4-10.7,42.4-10.7,42.4l3.7,4.8c0,0,8.7-24.7,10.6-41.3
					c1.5-12.8,13.5-58.4,18.9-78.4c6,6.6,10.9,13.3,13.6,20.1c10.3,25.5,16.5,54.2,30.3,67.7c13.8,13.6,29,31.7,28.6,57.2
					c-0.3,25.5,3.5,21-0.8,36.9c-4.3,15.9-15.3,32.7-15.3,32.7l-11.9,6.8C920.9,398.5,895.1,406.6,885.8,395z"/>
				<path fill="#BECC91" stroke="#0D6132" stroke-width="2" stroke-miterlimit="10" d="M695.3,58.3c0,0,42.3,27.4,61.3,56.7
					c19,29.4,72,150.1,83.4,172s69,64.7,80.9,83.8c11.9,19,20.5,41.1,28.1,43.4c0,0,2.4,12.6-9.2,16.9c0,0-15.6-23-25-45.8
					c-9.4-22.8-65.1-60-82.1-91.5c-17-31.4-67.1-149.8-80.2-174.8C739.4,94.2,695.3,58.3,695.3,58.3z"/>
				<path fill="none" stroke="#0D6132" stroke-width="2" stroke-miterlimit="10" d="M796.2,300.8c0,0,20,5,25.3,5.3
					c5.4,0.3,20.9,2,20.9,2"/>
				<path fill="none" stroke="#0D6132" stroke-width="2" stroke-miterlimit="10" d="M793.1,293.6c0,0,23.5-0.9,43.1,6"/>
				<path fill="none" stroke="#0D6132" stroke-width="2" stroke-miterlimit="10" d="M789.4,284.2c0,0,17.3,2.7,24.6,3.3
					s17.1,3.5,17.1,3.5"/>
				<path fill="none" stroke="#0D6132" stroke-width="2" stroke-miterlimit="10" d="M784.5,274.2c0,0,13.1,4.1,19.6,6.1
					s23.3,3.3,23.3,3.3"/>
				<path fill="none" stroke="#0D6132" stroke-width="2" stroke-miterlimit="10" d="M776.8,262.6c0,0,16.8,3.5,26.3,7.8
					c9.5,4.3,21.4,7.2,21.4,7.2"/>
				<path fill="none" stroke="#0D6132" stroke-width="2" stroke-miterlimit="10" d="M768.3,250.9c0,0,14.9,7.8,25,8.9
					c10.2,1.1,27,9,27,9"/>
				<path fill="none" stroke="#0D6132" stroke-width="2" stroke-miterlimit="10" d="M761.1,239.6c0,0,12.3,1.3,23.9,5.5
					c11.6,4.2,29.8,11.7,29.8,11.7"/>
				<path fill="none" stroke="#0D6132" stroke-width="2" stroke-miterlimit="10" d="M809.1,245.4c0,0-16.6-1.1-22.6-2.5
					s-29-11.8-29-11.8"/>
				<path fill="none" stroke="#0D6132" stroke-width="2" stroke-miterlimit="10" d="M755.2,221.3c0,0,14.8,5,24.6,8.2
					c9.8,3.2,25.9,7.1,25.9,7.1"/>
				<path fill="none" stroke="#0D6132" stroke-width="2" stroke-miterlimit="10" d="M753.5,212.9c0,0,11.4,1.7,22.6,4.5
					s25.5,10.1,25.5,10.1"/>
				<path fill="none" stroke="#0D6132" stroke-width="2" stroke-miterlimit="10" d="M751.5,202.7c0,0,11.5,4.9,23.5,8.7
					c12,3.8,22.1,6,22.1,6"/>
				<path fill="none" stroke="#0D6132" stroke-width="2" stroke-miterlimit="10" d="M749.7,194.7c0,0,6.9,2.1,17.3,4.5
					c10.4,2.5,26.7,9.5,26.7,9.5"/>
				<path fill="none" stroke="#0D6132" stroke-width="2" stroke-miterlimit="10" d="M746.5,182.4c0,0,14.2,7,22.1,8.6
					c7.9,1.6,18.7,4.5,18.7,4.5"/>
				<path fill="none" stroke="#0D6132" stroke-width="2" stroke-miterlimit="10" d="M744,174.2c0,0,9.2,2.5,19.4,5.4
					s20.5,8.1,20.5,8.1"/>
				<path fill="none" stroke="#0D6132" stroke-width="2" stroke-miterlimit="10" d="M740.8,166.1c0,0,15.9,6.6,22.1,6.8
					c6.2,0.3,16.2,4.1,16.2,4.1"/>
				<path fill="none" stroke="#0D6132" stroke-width="2" stroke-miterlimit="10" d="M736.7,157.2c0,0,10.5,1.5,19.1,4.5
					s20.4,8.8,20.4,8.8"/>
				<path fill="none" stroke="#0D6132" stroke-width="2" stroke-miterlimit="10" d="M719.5,130.5c0,0,14.1,1.2,23.8,4.8
					s20.5,7.5,20.5,7.5"/>
				<path fill="none" stroke="#0D6132" stroke-width="2" stroke-miterlimit="10" d="M715.2,121.2c0,0,16.3,3.2,22.9,4.9
					s19.8,4,19.8,4"/>
				<path fill="none" stroke="#0D6132" stroke-width="2" stroke-miterlimit="10" d="M711.3,109.8c0,0,9.9,5,18.7,6.9
					c8.8,1.9,23.5,4.4,23.5,4.4"/>
				<path fill="none" stroke="#0D6132" stroke-width="2" stroke-miterlimit="10" d="M709.5,103.2c0,0,10.7-1.4,19.7,3.3
					s20.2,7.8,20.2,7.8"/>
				<path fill="none" stroke="#0D6132" stroke-width="2" stroke-miterlimit="10" d="M707.6,94.1c0,0,8.6,0.5,14,1.9
					c5.4,1.4,18.1,5.1,18.1,5.1"/>
				<path fill="none" stroke="#0D6132" stroke-width="2" stroke-miterlimit="10" d="M706,85.8c0,0,22.5,3,24.7,5.3"/>
				<path fill="none" stroke="#0D6132" stroke-width="2" stroke-miterlimit="10" d="M704,78.8c0,0,15.9,1.3,20.2,5.7"/>
				<path fill="none" stroke="#0D6132" stroke-width="2" stroke-miterlimit="10" d="M701.2,71.3c0,0,7.5-1.4,12.4,3.1"/>
				<path fill="none" stroke="#0D6132" stroke-width="2" stroke-miterlimit="10" d="M707.7,57.7c0,0,5.9,13.5,12.6,19.2"/>
				<path fill="none" stroke="#0D6132" stroke-width="2" stroke-miterlimit="10" d="M716.3,57.7c0,0,5.5,11.4,5.8,16.1
					c0.3,4.7,8.3,11.7,8.3,11.7"/>
				<path fill="none" stroke="#0D6132" stroke-width="2" stroke-miterlimit="10" d="M729.9,58.6c0,0,2,9.7,3.2,17.4
					s5.3,17.2,5.3,17.2"/>
				<path fill="none" stroke="#0D6132" stroke-width="2" stroke-miterlimit="10" d="M743.1,61c0,0,0.2,16.9,1.8,25.6
					s6.1,20.5,6.1,20.5"/>
				<path fill="none" stroke="#0D6132" stroke-width="2" stroke-miterlimit="10" d="M751,63.5c0,0-1,21.2,0,28.9
					c1,7.6,5.6,22.7,5.6,22.7"/>
				<path fill="none" stroke="#0D6132" stroke-width="2" stroke-miterlimit="10" d="M762.2,69c0,0-4.8,18.8-4.4,24.1
					c0.5,5.3,3.1,29.2,3.1,29.2"/>
				<path fill="none" stroke="#0D6132" stroke-width="2" stroke-miterlimit="10" d="M770.9,75.9c0,0-2.1,16.5-4,27.9
					c-1.8,11.5-1.1,27.3-1.1,27.3"/>
				<path fill="none" stroke="#0D6132" stroke-width="2" stroke-miterlimit="10" d="M779.8,86.5c0,0-4.3,10.7-4.9,28.8
					s-0.2,33-0.2,33"/>
				<path fill="none" stroke="#0D6132" stroke-width="2" stroke-miterlimit="10" d="M787.4,93.9c0,0-2,17-3,36
					c-1,18.9-2.4,32.2-2.4,32.2"/>
				<path fill="none" stroke="#0D6132" stroke-width="2" stroke-miterlimit="10" d="M793.6,98.4c0,0-0.2,17.5-2.3,34.8
					c-2.1,17.3-2.7,43.2-2.7,43.2"/>
				<path fill="none" stroke="#0D6132" stroke-width="2" stroke-miterlimit="10" d="M804.4,105.1c0,0-6.4,20.7-5.5,33.4
					s1.5,30.7,0.2,40c-1.3,9.3,1.7,24.4,1.7,24.4"/>
			</g>
			<g>
				<path fill="#447862" stroke="#183E1D" stroke-width="2" stroke-miterlimit="10" d="M-82.6,613.6c8.3-11.4,5.6-35.8,14.6-54.4
					c1.1-2.2,2.6-4.6,4.4-7.1l0,0c0,0,8.2,20.8,10.1,26c2,5.2,11.3,22.9,11.3,22.9s-8.1-25.2-12.5-36.4c-4.4-11.1-5.8-16.7-5.8-16.7
					c14.8-18.3,42.9-41.3,54.5-49.6c14.1-10,25.1-31.2,38.1-40.7c11.6-8.4,45.2-19.6,66.7-41.3c0.8,3.5,1.3,6.9,1.4,9.2
					c0.1,6.5-0.9,28.2-0.9,28.2l13.2-10.9c0,0,0.5-13.1,1.5-23.3c0.5-5.4-0.5-13-1.6-19.1c12.9-13.7,28.9-21.3,38.8-26
					c11.5-5.4,24.6-17.8,24.6-17.8c7.7,22,17.2,55.4-0.7,78.5c-17.5,22.5-8.8,32.9-26.4,53.1c-11.2,13-20.3,35.6-30.8,54.3
					c-9.8,1.2-24.1,2.7-36.4,3c-21.4,0.5-19.9-0.5-40,2.9s-41.2,0.8-41.2,0.8l-3.4,4.5c0,0,24.6,1.7,40.2-0.6
					c12-1.8,56.4-2.3,75.9-2.4c-4.5,7.1-9.4,13.2-14.8,17.3c-20.7,15.7-45.1,28.5-54,44.5c-8.9,16-21.6,34.2-44.9,40.3
					s-18.2,8.5-33.7,8.5c-15.5,0.1-33.5-5.8-33.5-5.8l-9.2-9.1C-77.1,646.4-90.9,624.9-82.6,613.6z"/>
				<path fill="none" stroke="#183E1D" stroke-width="2" stroke-miterlimit="10" d="M1.9,491.5c0,0-0.4,12.9-0.7,19.3
					c-0.2,6.4,2.8,22,2.8,22"/>
				<path fill="none" stroke="#183E1D" stroke-width="2" stroke-miterlimit="10" d="M10.5,481.6c0,0,1,16.1-0.6,25.9
					s-1.2,21.3-1.2,21.3"/>
				<path fill="none" stroke="#183E1D" stroke-width="2" stroke-miterlimit="10" d="M19.1,470.9c0,0-3.4,15.5-1.9,25
					s-1.4,26.8-1.4,26.8"/>
				<path fill="none" stroke="#183E1D" stroke-width="2" stroke-miterlimit="10" d="M27.5,461.6c0,0,1.9,11.5,1,23.1
					c-0.9,11.6-3.2,30-3.2,30"/>
				<path fill="none" stroke="#183E1D" stroke-width="2" stroke-miterlimit="10" d="M34.3,506.6c0,0-3.1-15.4-3.4-21.1
					s3.5-29.3,3.5-29.3"/>
				<path fill="none" stroke="#183E1D" stroke-width="2" stroke-miterlimit="10" d="M42.7,451.5c0,0-0.9,14.7-1.4,24.4
					c-0.5,9.7,0,25.4,0,25.4"/>
				<path fill="none" stroke="#183E1D" stroke-width="2" stroke-miterlimit="10" d="M49.9,447.9c0,0,1.3,10.8,1.6,21.6
					s-2.9,25.7-2.9,25.7"/>
				<path fill="none" stroke="#183E1D" stroke-width="2" stroke-miterlimit="10" d="M58.7,443.6c0,0-1.6,11.7-2,23.5
					c-0.5,11.8,0.1,21.6,0.1,21.6"/>
				<path fill="none" stroke="#183E1D" stroke-width="2" stroke-miterlimit="10" d="M65.6,440c0,0-0.2,6.8,0.2,16.9
					c0.4,10.1-2,26.7-2,26.7"/>
				<path fill="none" stroke="#183E1D" stroke-width="2" stroke-miterlimit="10" d="M76,434c0,0-2.8,14.6-2.3,22.2
					c0.5,7.6,0.6,18.1,0.6,18.1"/>
				<path fill="none" stroke="#183E1D" stroke-width="2" stroke-miterlimit="10" d="M82.7,429.6c0,0,0,9,0,19
					c0,10-2.3,20.6-2.3,20.6"/>
				<path fill="none" stroke="#183E1D" stroke-width="2" stroke-miterlimit="10" d="M89.3,424.8c0,0-2,16.1-0.7,21.8
					c1.3,5.7,0.3,15.7,0.3,15.7"/>
				<path fill="none" stroke="#183E1D" stroke-width="2" stroke-miterlimit="10" d="M96.3,418.8c0,0,1.3,10,0.7,18.4
					c-0.6,8.5-2.9,20.7-2.9,20.7"/>
				<path fill="none" stroke="#183E1D" stroke-width="2" stroke-miterlimit="10" d="M116.4,396.5c0,0,2.5,13.2,1.6,22.8
					c-0.9,9.7-1.8,20.5-1.8,20.5"/>
				<path fill="none" stroke="#183E1D" stroke-width="2" stroke-miterlimit="10" d="M123.8,390.2c0,0,1.1,15.6,1.3,22.1
					c0.1,6.5,1.3,19,1.3,19"/>
				<path fill="none" stroke="#183E1D" stroke-width="2" stroke-miterlimit="10" d="M133.1,383.9c0,0-2.1,10.2-1.6,18.7
					c0.5,8.5,1.8,22.5,1.8,22.5"/>
				<path fill="none" stroke="#183E1D" stroke-width="2" stroke-miterlimit="10" d="M138.7,380.6c0,0,4,9.4,1.9,18.8
					c-2,9.4-2.1,20.3-2.1,20.3"/>
				<path fill="none" stroke="#183E1D" stroke-width="2" stroke-miterlimit="10" d="M146.4,376.6c0,0,1.7,7.9,1.8,13.2
					c0.1,5.3-0.1,17.7-0.1,17.7"/>
				<path fill="none" stroke="#183E1D" stroke-width="2" stroke-miterlimit="10" d="M153.6,373.1c0,0,2.9,21.2,1.3,23.8"/>
				<path fill="none" stroke="#183E1D" stroke-width="2" stroke-miterlimit="10" d="M159.5,369.6c0,0,2.8,14.8-0.2,19.8"/>
				<path fill="none" stroke="#183E1D" stroke-width="2" stroke-miterlimit="10" d="M165.7,365.1c0,0,3.2,6.5,0.2,12.1"/>
				<path fill="none" stroke="#183E1D" stroke-width="2" stroke-miterlimit="10" d="M179.6,367.6c0,0-10.8,8.7-14.3,16.3"/>
				<path fill="none" stroke="#183E1D" stroke-width="2" stroke-miterlimit="10" d="M181.7,375.4c0,0-9,7.8-13.2,9.2
					s-8.6,10.5-8.6,10.5"/>
				<path fill="none" stroke="#183E1D" stroke-width="2" stroke-miterlimit="10" d="M184.3,388.1c0,0-8.3,4.2-15.1,7.2
					c-6.7,3-14.3,9.1-14.3,9.1"/>
				<path fill="none" stroke="#183E1D" stroke-width="2" stroke-miterlimit="10" d="M185.4,400.6c0,0-15.3,4.4-22.9,8
					c-7.5,3.6-17.1,10.6-17.1,10.6"/>
				<path fill="none" stroke="#183E1D" stroke-width="2" stroke-miterlimit="10" d="M185.1,408.4c0,0-19.6,4.4-26.2,7.2
					s-19.3,10.8-19.3,10.8"/>
				<path fill="none" stroke="#183E1D" stroke-width="2" stroke-miterlimit="10" d="M182.9,420c0,0-18.3,0.3-23,2
					c-4.7,1.7-25.8,10.1-25.8,10.1"/>
				<path fill="none" stroke="#183E1D" stroke-width="2" stroke-miterlimit="10" d="M178.8,429.6c0,0-15.5,2.2-26.4,3.4
					c-10.9,1.2-25.1,5.8-25.1,5.8"/>
				<path fill="none" stroke="#183E1D" stroke-width="2" stroke-miterlimit="10" d="M171.4,440.4c0,0-10.8-1.2-27.5,2.7
					c-16.6,3.9-30,8-30,8"/>
				<path fill="none" stroke="#183E1D" stroke-width="2" stroke-miterlimit="10" d="M166.5,449.1c0,0-16,2.4-33.4,6.2
					s-29.9,5.9-29.9,5.9"/>
				<path fill="none" stroke="#183E1D" stroke-width="2" stroke-miterlimit="10" d="M164,455.9c0,0-16,4.1-32.2,6.6
					c-16.3,2.4-39.9,8.3-39.9,8.3"/>
				<path fill="none" stroke="#183E1D" stroke-width="2" stroke-miterlimit="10" d="M160.6,467.3c0,0-20.4-0.7-31.7,3.4
					c-11.3,4-27.6,9-36.4,10.1c-8.8,1.1-21.7,7.6-21.7,7.6"/>
				<path fill="none" stroke="#183E1D" stroke-width="2" stroke-miterlimit="10" d="M157.1,476.2c0,0-5.8-2.9-28,2.2
					c-22.2,5.1-63.4,14.4-63.4,14.4"/>
				<path fill="none" stroke="#183E1D" stroke-width="2" stroke-miterlimit="10" d="M151.1,485.4c0,0-12-0.4-24.7,1.5
					s-19.5,6.7-33.6,8.8c-14.1,2.1-38.7,6.8-38.7,6.8"/>
				<path fill="none" stroke="#183E1D" stroke-width="2" stroke-miterlimit="10" d="M143.5,495.2c0,0-21.9,1.2-32.8,3.5
					s-28.8,8.6-40.7,11c-11.9,2.4-25.5,0.8-25.5,0.8"/>
				<path fill="none" stroke="#183E1D" stroke-width="2" stroke-miterlimit="10" d="M138.8,502.9c0,0-5.2,1.3-20.9,3.4
					s-21.6,6.4-39.7,8.2s-42.5,3.6-42.5,3.6"/>
				<path fill="none" stroke="#183E1D" stroke-width="2" stroke-miterlimit="10" d="M130.9,517.6c0,0-18.5-2.5-31.5,0.2
					s-35.8,8.4-44.9,8.5s-28.3-0.2-28.3-0.2"/>
				<path fill="none" stroke="#183E1D" stroke-width="2" stroke-miterlimit="10" d="M125.5,528.2c0,0-21.4-0.9-40.3,1.4
					c-19,2.3-25.5,6.4-41.3,8.3s-29.2-2.1-29.2-2.1"/>
				<path fill="none" stroke="#183E1D" stroke-width="2" stroke-miterlimit="10" d="M120.3,537.2c0,0-16.7-0.4-30.9,0.4
					c-14.2,0.7-49.9,6.8-61.9,6.8s-23.4,0.8-23.4,0.8"/>
				<path fill="none" stroke="#183E1D" stroke-width="2" stroke-miterlimit="10" d="M110.3,554.9c0,0-12.4,2-34.1,1.6
					s-36.1,1.8-50.4,3.3c-14.3,1.5-32.6-0.4-32.6-0.4"/>
				<path fill="none" stroke="#183E1D" stroke-width="2" stroke-miterlimit="10" d="M-8.7,562.4c0,0,18.5,5.1,37,4.6
					c18.5-0.5,68.1,2.3,68.1,2.3"/>
				<path fill="none" stroke="#183E1D" stroke-width="2" stroke-miterlimit="10" d="M78.8,581.7c0,0-16-4.4-31.8-4.8
					s-41,1.7-62.2-3.2"/>
				<path fill="none" stroke="#183E1D" stroke-width="2" stroke-miterlimit="10" d="M65.9,590.8c0,0-10.7-3.6-24.6-4.7
					s-28.4,3.1-38.2,1.7c-9.8-1.5-22.7-5.7-22.7-5.7"/>
				<path fill="none" stroke="#183E1D" stroke-width="2" stroke-miterlimit="10" d="M59.9,595.4c0,0-18.1-2.7-34.3-1.3
					c-16.2,1.4-48.9-4.7-48.9-4.7"/>
				<path fill="none" stroke="#183E1D" stroke-width="2" stroke-miterlimit="10" d="M52.6,601.9c0,0-22.9-2.8-36.7-0.8
					c-13.8,2-43.2-3.9-43.2-3.9"/>
				<path fill="#A8B07F" stroke="#183E1D" stroke-width="2" stroke-miterlimit="10" d="M175.9,356.5c0,0-14.3,45.3-36.3,69.9
					S21.1,529.3,4.1,545.1s-41.7,78.8-56,94.4c-14.3,15.6-32.3,28.9-32.5,36.4c0,0-10.8,5.3-17.7-4.2c0,0,17-20,35.4-34.1
					c18.3-14.2,38.3-74.1,62.7-97.5c24.3-23.3,119.4-98.4,138.9-116.5S175.9,356.5,175.9,356.5z"/>
			</g>
			<g>
				<path fill="#447862" stroke="#0D6132" stroke-width="2" stroke-miterlimit="10" d="M158.8,289.6c7.7,15.7-16.9,50.8-18.2,55.8
					s-1.1,18.2-1.1,18.2S109.7,340,112,327.1c2.3-12.9,7.1-32.2,3.6-37l0,0C130,284.7,158.8,289.6,158.8,289.6z"/>
				<path fill="#A0BE8C" stroke="#0D6132" stroke-width="2" stroke-linejoin="round" stroke-miterlimit="10" d="M140,287.7
					c-0.3,8.2-8.6,31.6-10.2,39.8c-1.7,8.2,9.8,36.1,9.8,36.1s-12.9-17.2-14.1-35.4c-0.3-5.4,8.6-40.5,8.6-40.5L140,287.7z"/>
				<path fill="#6BA47D" stroke="#0F6032" stroke-width="2" stroke-miterlimit="10" d="M-68.8,513.3c-9.3-9.4-29.6-31.5-35-41.1
					c5.6-11.5,11-28.4,14.5-37.1c11.7-29.3,43.5-50.4,50.3-63.4c6.8-13,10.4-40.4,22.7-53.3c1.4-1.4,2.8-2.8,4.3-4.2
					c1.6,6.8,3.4,14,4.4,17.1c2.4,6.8,23.7,24.9,23.7,24.9S0.9,340.6-2.5,332.5c-1.8-4.2-3.4-14.2-4.6-23
					c11.1-9.8,19.6-21.5,27-33.2c9.4-15,28.7-17.9,44.5-22.9c15.7-5,46-1.5,64.5,8.1c18.5,9.6,25.6,16.9,29.9,28.1
					c0,0-41.9-7.1-49.9,5.4c-8,12.4-10.6,40.5-31.7,60.9C61.4,371.2,59,399,56.6,420.5c-7.7,1.7-17.9,3.8-22.8,4.4
					c-8.3,1-34.7-2.8-34.7-2.8s21.6,7.4,29.5,7.7c4.8,0.2,17.8-1.2,27.1-2.2c-0.6,4.3-1.2,8.2-2,11.5c-1.6,6.4-3.2,13.1-5.4,19.9
					c-7.3,0.3-18.4,0.5-26.8-0.7c-13.7-1.8-34.9-8.1-34.9-8.1l-1.4,3c0,0,32.2,7.5,39.3,9.3c4.4,1.1,14.6,1.8,21.8,2.2
					c-4.6,12.5-11.5,24.4-24.3,32.8C0.6,511.6-2,543-14.9,550.2c-10.6,6-39.7,10.3-70.6-17.3c-16.5-14.7-27.1-38.9-21-54.6
					C-95.9,490.6-68.8,513.3-68.8,513.3z"/>
				<path fill="#BDCB90" stroke="#0D6132" stroke-width="2" stroke-miterlimit="10" d="M-84.8,561.7c0,0,37.5-45.2,59.6-86.9
					s67.5-161.8,91-184.8c17.9-17.5,53.3-23.8,65.1-25.4c3.6-0.5-2-3-2-3s-37-4.7-71.3,28.4s-84,165.6-97.5,186
					c-13.5,20.5-52,65.7-61.3,73.5C-101.2,549.4-104.9,563.7-84.8,561.7z"/>
				<path fill="none" stroke="#0F6032" stroke-width="2" stroke-miterlimit="10" d="M2,385.4c0,0-7.9-11.5-14.1-17.8
					s-15.7-28.8-15.7-28.8"/>
				<path fill="none" stroke="#0F6032" stroke-width="2" stroke-miterlimit="10" d="M5.7,377.5c0,0-7.9-14.2-14.4-22.9
					S-24,330-24,330"/>
				<path fill="none" stroke="#0F6032" stroke-width="2" stroke-miterlimit="10" d="M-18.7,320c0,0,5.6,11,9.3,18.9
					c3.7,7.9,19.6,29.2,19.6,29.2"/>
				<path fill="none" stroke="#0F6032" stroke-width="2" stroke-miterlimit="10" d="M19.8,348.7c0,0-4.7-12.5-11.4-19
					c-6.7-6.5-10.6-24.8-10.6-24.8"/>
				<path fill="none" stroke="#0F6032" stroke-width="2" stroke-miterlimit="10" d="M25.1,338.6c0,0-3.6-11.6-8.3-19.2
					S3.4,298.9,3.4,298.9"/>
				<path fill="none" stroke="#0F6032" stroke-width="2" stroke-miterlimit="10" d="M29.8,329.9c0,0-6.3-11.1-10.7-19.5
					c-4.4-8.4-7.7-21.5-7.7-21.5"/>
				<path fill="none" stroke="#0F6032" stroke-width="2" stroke-miterlimit="10" d="M34.6,321.6c0,0-2.7-8-8.1-16.7
					c-5.4-8.7-8.5-25.6-8.5-25.6"/>
				<path fill="none" stroke="#0F6032" stroke-width="2" stroke-miterlimit="10" d="M41,311.1c0,0-4.6-14.4-8.4-22.6
					c-3.8-8.2-7.8-18.3-7.8-18.3"/>
				<path fill="none" stroke="#0F6032" stroke-width="2" stroke-miterlimit="10" d="M46.4,303.3c0,0-1-12.2-3.1-21.2s-5.8-20-5.8-20
					"/>
				<path fill="none" stroke="#0F6032" stroke-width="2" stroke-miterlimit="10" d="M48.3,258.1c0,0,0.4,15.3,1.2,19.9
					c0.8,4.6,4.1,16,4.1,16"/>
				<path fill="none" stroke="#0F6032" stroke-width="2" stroke-miterlimit="10" d="M61.1,254.4c0,0-5.3,12.8-4.8,18.6
					c0.5,5.8,1.2,16.9,1.2,16.9"/>
				<path fill="none" stroke="#0F6032" stroke-width="2" stroke-miterlimit="10" d="M64,284.1c0,0,2.6-12.4,3.3-18.2
					c0.7-5.7,3.6-14.1,3.6-14.1"/>
				<path fill="none" stroke="#0F6032" stroke-width="2" stroke-miterlimit="10" d="M78.4,251.2c0,0-3,6.3-4.2,11.9
					c-1.2,5.6-3.6,15.9-3.6,15.9"/>
				<path fill="none" stroke="#0F6032" stroke-width="2" stroke-miterlimit="10" d="M86.3,251.2c0,0-1.2,14.8-7.1,22.4"/>
				<path fill="none" stroke="#0F6032" stroke-width="2" stroke-miterlimit="10" d="M87.4,269.5c0,0,2.2-7,2.6-10.2
					c0.5-3.2-0.3-7.8-0.3-7.8"/>
				<path fill="none" stroke="#0F6032" stroke-width="2" stroke-miterlimit="10" d="M96.4,266c0,0,3.7-5.8,3.6-13.9"/>
				<path fill="none" stroke="#0F6032" stroke-width="2" stroke-miterlimit="10" d="M104.2,263.7c0,0,4.6-4.7-0.8-10.5"/>
				<path fill="none" stroke="#0F6032" stroke-width="2" stroke-miterlimit="10" d="M111.3,262.3c0,0,0.9-2.9-2.5-8"/>
				<path fill="none" stroke="#0F6032" stroke-width="2" stroke-miterlimit="10" d="M-0.3,528c0,0-11-4.7-19.5-6.9
					s-28.4-8.6-28.4-8.6"/>
				<path fill="none" stroke="#0F6032" stroke-width="2" stroke-miterlimit="10" d="M-44.9,507.6c0,0,11.9,2.1,20.9,3.4
					s28.4,7.3,28.4,7.3"/>
				<path fill="none" stroke="#0F6032" stroke-width="2" stroke-miterlimit="10" d="M7.8,512.6c0,0-17-4.8-24.1-6.2
					c-7.1-1.4-23.7-6.3-23.7-6.3"/>
				<path fill="none" stroke="#0F6032" stroke-width="2" stroke-miterlimit="10" d="M-36.1,493.8c0,0,12.6,3.3,18.5,4.8
					c5.8,1.4,31,6.6,31,6.6"/>
				<path fill="none" stroke="#0F6032" stroke-width="2" stroke-miterlimit="10" d="M18.6,500c0,0-16.8-4.1-26.6-6.9
					c-9.9-2.7-24.8-4.9-24.8-4.9"/>
				<path fill="none" stroke="#0F6032" stroke-width="2" stroke-miterlimit="10" d="M-28.7,481.1c0,0,16.8,3,23.9,4
					c7.1,1,32.3,8.3,32.3,8.3"/>
				<path fill="none" stroke="#0F6032" stroke-width="2" stroke-miterlimit="10" d="M34.4,486.4c0,0-16.3-3.3-26.5-4.8
					s-33.1-6.9-33.1-6.9"/>
				<path fill="none" stroke="#0F6032" stroke-width="2" stroke-miterlimit="10" d="M-22.3,469.2c0,0,10.6,1.4,20.8,3.5
					s40,8.3,40,8.3"/>
				<path fill="none" stroke="#0F6032" stroke-width="2" stroke-miterlimit="10" d="M41.5,475.8c0,0-17.7-4.4-29.3-6.6
					c-11.6-2.2-30.2-8.8-30.2-8.8"/>
				<path fill="none" stroke="#0F6032" stroke-width="2" stroke-miterlimit="10" d="M50.1,452.8c0,0-15.2,0.2-23.2-0.5
					s-38.3-6.6-38.3-6.6"/>
				<path fill="none" stroke="#0F6032" stroke-width="2" stroke-miterlimit="10" d="M-9.1,440.8c0,0,20.1,4.6,28.1,5.7
					s32.2,2.3,32.2,2.3"/>
				<path fill="none" stroke="#0F6032" stroke-width="2" stroke-miterlimit="10" d="M52.7,443.1c0,0-15-3.1-24.3-3.1s-36-2.6-36-2.6
					"/>
				<path fill="none" stroke="#0F6032" stroke-width="2" stroke-miterlimit="10" d="M-5.6,433c0,0,29,2.7,34.7,2.4
					c5.8-0.3,25.8-1,25.8-1"/>
				<path fill="none" stroke="#0F6032" stroke-width="2" stroke-miterlimit="10" d="M57.4,412.9c0,0-18.3,5.7-27.5,5
					s-28.2-1.7-28.2-1.7"/>
				<path fill="none" stroke="#0F6032" stroke-width="2" stroke-miterlimit="10" d="M58,408.4c0,0-10.8,1.9-21.4,1
					c-10.6-0.9-32.1,0.7-32.1,0.7"/>
				<path fill="none" stroke="#0F6032" stroke-width="2" stroke-miterlimit="10" d="M58.9,401.6c0,0-18,1.4-26,0.4
					c-8-1-24.1-1.6-24.1-1.6"/>
				<path fill="none" stroke="#0F6032" stroke-width="2" stroke-miterlimit="10" d="M60.1,394c0,0-18.5-1.3-26.3-0.4
					c-7.8,0.9-22.2,0.2-22.2,0.2"/>
				<path fill="none" stroke="#0F6032" stroke-width="2" stroke-miterlimit="10" d="M61.5,387.2c0,0-9.8-3.8-20.5-5.3
					s-24.6,0.9-24.6,0.9"/>
				<path fill="none" stroke="#0F6032" stroke-width="2" stroke-miterlimit="10" d="M19.6,375.8c0,0,22.3,1.1,29,2.2
					s15.3,0.5,15.3,0.5"/>
				<path fill="none" stroke="#0F6032" stroke-width="2" stroke-miterlimit="10" d="M67,370.8c0,0-14.7-2.2-23.1-2.1
					S22,370.3,22,370.3"/>
				<path fill="none" stroke="#0F6032" stroke-width="2" stroke-miterlimit="10" d="M26.6,360.4c0,0,14.5-0.4,22.1,1
					s20.7,5.3,20.7,5.3"/>
				<path fill="none" stroke="#0F6032" stroke-width="2" stroke-miterlimit="10" d="M73.1,360.5c0,0-14.7-1.9-23.3-4.1
					S29,355.1,29,355.1"/>
				<path fill="none" stroke="#0F6032" stroke-width="2" stroke-miterlimit="10" d="M31.9,348.8c0,0,21.5-1.9,28.6-1.1
					s21.1,3.5,21.1,3.5"/>
				<path fill="none" stroke="#0F6032" stroke-width="2" stroke-miterlimit="10" d="M89,341.1c0,0-10.6-2.9-21.8-1.6
					s-30.4-1.1-30.4-1.1"/>
				<path fill="none" stroke="#0F6032" stroke-width="2" stroke-miterlimit="10" d="M40.5,331c0,0,17.3,2,24,2.4s27.9,1.4,27.9,1.4"
					/>
				<path fill="none" stroke="#0F6032" stroke-width="2" stroke-miterlimit="10" d="M94.8,329.9c0,0-11.5-2.7-24.1-4.7
					c-12.5-1.9-27.3-0.1-27.3-0.1"/>
				<path fill="none" stroke="#0F6032" stroke-width="2" stroke-miterlimit="10" d="M46.2,320c0,0,10.6-3.2,20.7-3.4
					s31.4,4.7,31.4,4.7"/>
				<path fill="none" stroke="#0F6032" stroke-width="2" stroke-miterlimit="10" d="M100.5,315.5c0,0-17.7-6.2-27.7-7.1
					s-20.7,1-20.7,1"/>
				<path fill="none" stroke="#0F6032" stroke-width="2" stroke-miterlimit="10" d="M56.2,302.6c0,0,17.9,1.3,23.9,1.9
					c6.1,0.5,22.1,4.1,22.1,4.1"/>
				<path fill="none" stroke="#0F6032" stroke-width="2" stroke-miterlimit="10" d="M104.7,303.8c0,0-8.9-5.4-17.4-6.7
					s-24-3.9-24-3.9"/>
				<path fill="none" stroke="#0F6032" stroke-width="2" stroke-miterlimit="10" d="M68.5,287.6c0,0,11.2,1.3,19.3,2.7
					c8.1,1.4,19.6,7.3,19.6,7.3"/>
				<path fill="none" stroke="#0F6032" stroke-width="2" stroke-miterlimit="10" d="M112.2,291.8c0,0-8-5.7-14.7-7.4
					c-6.6-1.7-17.7-4.6-17.7-4.6"/>
				<path fill="none" stroke="#0F6032" stroke-width="2" stroke-miterlimit="10" d="M85.6,277c0,0,10,2.4,16.2,4.2
					c6.3,1.8,20.6,7.2,20.6,7.2"/>
				<path fill="none" stroke="#0F6032" stroke-width="2" stroke-miterlimit="10" d="M127.8,287.8c0,0-17.7-12.4-32.2-14.8"/>
				<path fill="none" stroke="#0F6032" stroke-width="2" stroke-miterlimit="10" d="M134.1,287.6c0,0-15.8-16-26.7-18.8"/>
				<path fill="none" stroke="#0F6032" stroke-width="2" stroke-miterlimit="10" d="M144.9,288c0,0-15.6-16.4-31.5-20.1"/>
				<path fill="none" stroke="#0F6032" stroke-width="2" stroke-miterlimit="10" d="M151.6,288.6c0,0-5.2-9.9-10.7-14.7
					s-16.8-8.3-16.8-8.3"/>
				<path fill="none" stroke="#0F6032" stroke-width="2" stroke-miterlimit="10" d="M139.6,290.9c0,0,14.8,8.5,20.3,11.2"/>
				<path fill="none" stroke="#0F6032" stroke-width="2" stroke-miterlimit="10" d="M158.4,308.4c0,0-15.9-2-20.5-9.9"/>
				<path fill="none" stroke="#0F6032" stroke-width="2" stroke-miterlimit="10" d="M154.7,318.1c0,0-6.9-3.5-10.1-6.4
					c-3.1-2.8-8.1-7.8-8.1-7.8"/>
				<path fill="none" stroke="#0F6032" stroke-width="2" stroke-miterlimit="10" d="M150.5,326.9c0,0-12.2-7.2-16.2-15.4"/>
				<path fill="none" stroke="#0F6032" stroke-width="2" stroke-miterlimit="10" d="M146.8,333.7c0,0-1.4-4.7-6-8.6
					c-4.6-3.9-8.3-8.5-8.3-8.5"/>
				<path fill="none" stroke="#0F6032" stroke-width="2" stroke-miterlimit="10" d="M130.8,322.9c0,0,7,14.4,10.7,20.3"/>
				<path fill="none" stroke="#0F6032" stroke-width="2" stroke-miterlimit="10" d="M127.1,337.5c0,0-1,8.8-3,11.7"/>
				<path fill="none" stroke="#0F6032" stroke-width="2" stroke-miterlimit="10" d="M125.5,328.1c0,0-2.1,8.8-3.4,10.1
					s-3.3,5.1-3.3,5.1"/>
				<path fill="none" stroke="#0F6032" stroke-width="2" stroke-miterlimit="10" d="M126.8,317.8c0,0-5.7,7.9-7.2,10.9
					s-5.4,7.4-5.4,7.4"/>
				<path fill="none" stroke="#0F6032" stroke-width="2" stroke-miterlimit="10" d="M128.3,309.9c0,0-7.4,9.7-15.7,13.8"/>
				<line fill="none" stroke="#0F6032" stroke-width="2" stroke-miterlimit="10" x1="130" y1="303.4" x2="114.9" y2="311.8"/>
				<path fill="none" stroke="#0F6032" stroke-width="2" stroke-miterlimit="10" d="M131.7,296.8c0,0-11.1,2.7-15.7,8.7"/>
				<line fill="none" stroke="#0F6032" stroke-width="2" stroke-miterlimit="10" x1="133.4" y1="290.2" x2="116.8" y2="295.5"/>
			</g>
			<g>
				<path fill="#A0BE8C" stroke="#0F6032" stroke-width="2" stroke-miterlimit="10" d="M252.7,486.6c-9.3-1-18.2,0.9-27,3.3
					c-11.4,18.1-20.5,37.9-20.5,37.9c1-11.3,4.8-24.1,8.6-34.6c-6.2,1.6-12.4,2.9-18.8,3c-19.8,0.3-46.8-2.2-66.6,18.9
					c-19.8,21.1-51.2,19.1-75.3,35.3c-4.7,3.2-9.4,7-14.1,11.3c-0.4,31.5-5.6,69.1-5.6,69.1s1.3-31-0.8-45.3
					c-0.6-4-1.5-9.4-2.6-15.1c-4,4.1-7.9,8.3-11.8,12.5l6.5,54.5l-12.8-47.6c-8.8,9.6-16.7,18.2-23.2,22.8
					c-15.9,11.2-80.4,35.1-61.2,84.2c0,0.1,0.1,0.2,0.1,0.2c-0.1-0.1-0.1-0.2-0.1-0.2l6,16.9c0,0,24,34.6,49.3,29.9
					c17-3.1,30.5-12.9,43.1-23.7c-9.8-4.3-55.2-24.3-62.2-28.8c0,0,50.2,18.1,68,23.8c6.9-5.7,13.9-10.5,21.3-12.2
					c22.9-5.3,75-21.7,94.1-35.8c19.1-14.1,34-64.1,55.4-76.2c21.4-12.1,34.9-21.2,49.5-41.3s37.7-17.1,59.1-39
					C311.4,510.1,272.6,488.8,252.7,486.6z"/>
				<path fill="#BDCB90" stroke="#0D6132" stroke-width="2" stroke-miterlimit="10" d="M-101.6,718.6c-9.3,8.3,12,14.1,12,14.1
					s51.2-44.8,91.3-65c40.2-20.1,181.1-157.3,309.7-157.6c0,0-64.3-5-141.4,32.4C92.8,580,17.9,645.3,1,654
					S-72.6,692.9-101.6,718.6z"/>
				<path fill="none" stroke="#006838" stroke-width="2" stroke-miterlimit="10" d="M101.7,596.1c0,0,23.5,0.3,43.6,5.7
					c20.1,5.4,39.1,8.6,39.1,8.6"/>
				<path fill="none" stroke="#006838" stroke-width="2" stroke-miterlimit="10" d="M110.3,590.2c0,0,27.6,0.6,43,4.1
					c15.4,3.5,42.8,1.3,42.8,1.3"/>
				<path fill="none" stroke="#006838" stroke-width="2" stroke-miterlimit="10" d="M119.1,584.3c0,0,26.4-1.2,41.8,0.6
					s55-2.2,55-2.2"/>
				<path fill="none" stroke="#006838" stroke-width="2" stroke-miterlimit="10" d="M131.7,576.1c0,0,27.3,0.5,43.1,1.9
					c15.8,1.5,44.8-7.9,57.4-6.9"/>
				<path fill="none" stroke="#006838" stroke-width="2" stroke-miterlimit="10" d="M149.7,565c0,0,15.6-0.4,34.8,2
					s52.3-0.1,52.3-0.1"/>
				<path fill="none" stroke="#006838" stroke-width="2" stroke-miterlimit="10" d="M163.2,557.2c0,0,15.8,0,35.5,0.6
					c19.7,0.6,42.6,4.7,42.6,4.7"/>
				<path fill="none" stroke="#006838" stroke-width="2" stroke-miterlimit="10" d="M182.1,547c0,0,20.6-4,34.7-3.2
					c14.1,0.8,35.4,5.3,35.4,5.3"/>
				<path fill="none" stroke="#006838" stroke-width="2" stroke-miterlimit="10" d="M172.3,552.2c0,0,6.3,2,28.1,0s48,2,48,2"/>
				<path fill="none" stroke="#006838" stroke-width="2" stroke-miterlimit="10" d="M205.4,535.9c0,0,14.5-2.8,29.9-1.4
					s26.2,5.4,26.2,5.4"/>
				<path fill="none" stroke="#006838" stroke-width="2" stroke-miterlimit="10" d="M225.4,527.7c0,0,15.5-0.7,26.2,2.6
					c10.7,3.2,28.4-0.3,28.4-0.3"/>
				<path fill="none" stroke="#006838" stroke-width="2" stroke-miterlimit="10" d="M244,521.3c0,0,15.5-1.9,25-0.2
					c9.5,1.7,24.4,2.5,24.4,2.5"/>
				<line fill="none" stroke="#006838" stroke-width="2" stroke-miterlimit="10" x1="267.7" y1="515" x2="303.6" y2="517"/>
				<path fill="none" stroke="#006838" stroke-width="2" stroke-miterlimit="10" d="M9.5,592.5c0,0-1.2,34,5.3,52.2"/>
				<path fill="none" stroke="#006838" stroke-width="2" stroke-miterlimit="10" d="M5.1,597.2c0,0,1.8,39.5-4.2,56.8"/>
				<path fill="none" stroke="#006838" stroke-width="2" stroke-miterlimit="10" d="M26.1,574.5c0,0,3.4,19.6,3.8,32.6
					s0.7,25.9,0.7,25.9"/>
				<path fill="none" stroke="#006838" stroke-width="2" stroke-miterlimit="10" d="M46.9,554.9c0,0-2.7,21.3-2.8,35.1
					c-0.1,13.8-0.8,33.4-0.8,33.4"/>
				<path fill="none" stroke="#006838" stroke-width="2" stroke-miterlimit="10" d="M208.5,494.4c0,0-2.9,7.5-6.6,16.5
					c-3.7,8.9-5.3,20.1-5.3,20.1"/>
				<path fill="none" stroke="#006838" stroke-width="2" stroke-miterlimit="10" d="M198.7,495.9c0,0-3.2,15.2-4.7,21.5
					c-1.5,6.2-3.5,16-3.5,16"/>
				<path fill="none" stroke="#006838" stroke-width="2" stroke-miterlimit="10" d="M192,496.2c0,0-6.7,18.7-7.6,25.7
					s-2.1,14.9-2.1,14.9"/>
				<path fill="none" stroke="#006838" stroke-width="2" stroke-miterlimit="10" d="M183.8,496.2c0,0-8.6,24.5-9,42.8"/>
				<path fill="none" stroke="#006838" stroke-width="2" stroke-miterlimit="10" d="M175.4,496.4c0,0-3.2,16.8-4.1,24.4
					c-0.9,7.6-4.5,23.2-4.5,23.2"/>
				<path fill="none" stroke="#006838" stroke-width="2" stroke-miterlimit="10" d="M164.7,497.4c0,0-1.7,11.8-2.8,22.2
					c-1.1,10.4-8.4,31.3-8.4,31.3"/>
				<path fill="none" stroke="#006838" stroke-width="2" stroke-miterlimit="10" d="M158.3,498.5c0,0-5.8,16.9-8.9,33.3
					c-3.1,16.4-3.1,23-3.1,23"/>
				<path fill="none" stroke="#006838" stroke-width="2" stroke-miterlimit="10" d="M145.6,502.7c0,0-0.6,14.7-4.2,25.9
					c-3.6,11.2-8.8,34.1-8.8,34.1"/>
				<path fill="none" stroke="#006838" stroke-width="2" stroke-miterlimit="10" d="M133.3,510.4c0,0,0.1,17.6-1.1,25.7
					c-1.1,8.1-4.4,29.4-4.4,29.4"/>
				<path fill="none" stroke="#006838" stroke-width="2" stroke-miterlimit="10" d="M126.8,516.7c0,0-4.2,7.8-6.2,23.4
					s-2.6,31.5-2.6,31.5"/>
				<path fill="none" stroke="#006838" stroke-width="2" stroke-miterlimit="10" d="M120.1,522.2c0,0-2.8,2.3-6.1,15.3
					c-3.4,13-2.4,38.2-2.4,38.2"/>
				<path fill="none" stroke="#006838" stroke-width="2" stroke-miterlimit="10" d="M110.8,527.6c0,0-3.1,18.6-3.7,24.9
					c-0.6,6.3-4.8,29.1-4.8,29.1"/>
				<path fill="none" stroke="#006838" stroke-width="2" stroke-miterlimit="10" d="M101.5,531.5c0,0-1.1,19.3-2.2,31.7
					c-1.2,12.4-3.4,22-3.4,22"/>
				<path fill="none" stroke="#006838" stroke-width="2" stroke-miterlimit="10" d="M94.1,534c0,0,1.4,12.6-0.4,24.4
					c-1.8,11.9-5.5,32.4-5.5,32.4"/>
				<path fill="none" stroke="#006838" stroke-width="2" stroke-miterlimit="10" d="M85.3,536.7c0,0-4.8,23.7-6.6,35.5
					c-1.7,11.8-0.2,25.6-0.2,25.6"/>
				<path fill="none" stroke="#006838" stroke-width="2" stroke-miterlimit="10" d="M75.5,539.8c0,0-2,14.1-4.4,27.4
					c-1.8,10.1,2.9,20.1-2.2,37.4"/>
				<path fill="none" stroke="#006838" stroke-width="2" stroke-miterlimit="10" d="M66.7,543.1c0,0,0.6,29.8-0.6,36.5
					c-1.2,6.7-3.4,29.5-3.4,29.5"/>
				<path fill="none" stroke="#006838" stroke-width="2" stroke-miterlimit="10" d="M54,549.8c0,0-5.3,25.7-6.2,35.6
					c-0.9,10,1.7,33.5,1.7,33.5"/>
				<path fill="none" stroke="#006838" stroke-width="2" stroke-miterlimit="10" d="M60.2,546.2c0,0-0.8,18.7-2.2,32.5
					c-1.4,13.7-1.9,35.3-1.9,35.3"/>
				<path fill="none" stroke="#006838" stroke-width="2" stroke-miterlimit="10" d="M229.2,489c0,0-8.1,16.2-9.1,22.8
					c-1,6.6-1.6,11.7-1.6,11.7"/>
				<path fill="none" stroke="#006838" stroke-width="2" stroke-miterlimit="10" d="M239.6,486.9c0,0-11.8,16.8-16.9,35.3"/>
				<path fill="none" stroke="#006838" stroke-width="2" stroke-miterlimit="10" d="M251,485.9c0,0-11.9,13.1-16.8,19.8
					c-4.9,6.7-7.2,15.3-7.2,15.3"/>
				<path fill="none" stroke="#006838" stroke-width="2" stroke-miterlimit="10" d="M232.8,519.4c0,0,11.7-16.8,18.2-21.7
					c6.6-4.9,14-8.8,14-8.8"/>
				<path fill="none" stroke="#006838" stroke-width="2" stroke-miterlimit="10" d="M273.2,492.3c0,0-24.2,13.4-29.6,24.6"/>
				<path fill="none" stroke="#006838" stroke-width="2" stroke-miterlimit="10" d="M252.4,515.1c0,0,19.8-9.6,30.5-18.8"/>
				<line fill="none" stroke="#006838" stroke-width="2" stroke-miterlimit="10" x1="289.4" y1="498.8" x2="272.9" y2="511.8"/>
				<path fill="none" stroke="#006838" stroke-width="2" stroke-miterlimit="10" d="M281,511c0,0,4.6-6.6,17.4-7.6"/>
			</g>
			<g>
				<path fill="#A0BE8C" stroke="#0F6032" stroke-width="2" stroke-miterlimit="10" d="M-2.5,59.3c-7.1,6.1-11.7,13.9-16,22
					c5.5,20.7,13.8,40.8,13.8,40.8c-7.6-8.4-14.4-19.9-19.5-29.9c-3,5.6-6.3,11-10.6,15.8c-13.3,14.7-33.5,32.7-31.6,61.6
					c1.9,28.9-20.9,50.5-25.5,79.2c-0.9,5.6-1.3,11.7-1.3,18c22.8,21.8,46.8,51.2,46.8,51.2s-21.8-22.1-33.7-30.3
					c-3.3-2.3-7.9-5.3-12.8-8.4c0.3,5.7,0.7,11.5,1.1,17.1l44.3,32.4l-43.5-23.1c1.1,13,1.9,24.6,0.8,32.5
					c-2.6,19.3-29.1,82.7,19.8,102.2c0.1,0,0.2,0.1,0.2,0.1c-0.1-0.1-0.2-0.1-0.2-0.1l16.5,7.1c0,0,41.7,6,55.5-15.7
					c9.3-14.6,11.4-31.1,12-47.7c-9.9,4.2-55.4,23.8-63.5,25.9c0,0,47.4-24.4,63.8-33.5c0.6-9,1.8-17.3,5.6-23.9
					c11.7-20.4,35.2-69.7,38-93.3c2.7-23.6-23.7-68.5-18-92.5c5.7-23.9,8.3-40,3.5-64.3S56.1,63,54.7,32.4
					C54.7,32.4,12.6,46.2-2.5,59.3z"/>
				<path fill="#BDCB90" stroke="#0D6132" stroke-width="2" stroke-miterlimit="10" d="M-74.4,476.6c-0.3,12.5,18.5,0.9,18.5,0.9
					s2.1-68,14.8-111.1s8.4-239.8,95.8-334c0,0-47.5,43.6-72.7,125.6s-28.5,181.3-33.6,199.6S-73.4,437.9-74.4,476.6z"/>
				<path fill="none" stroke="#006838" stroke-width="2" stroke-miterlimit="10" d="M-53.4,440.3c0,0,39.8-4.9,60.1-18.6"/>
				<path fill="none" stroke="#006838" stroke-width="2" stroke-miterlimit="10" d="M-52.4,429.8c0,0,40.2-10.1,64.9-28.1"/>
				<path fill="none" stroke="#006838" stroke-width="2" stroke-miterlimit="10" d="M-51.1,418.2c0,0,24.7-2.7,55.9-11.5"/>
				<path fill="none" stroke="#006838" stroke-width="2" stroke-miterlimit="10" d="M-47.5,394.3c0,0,34.6-27.1,64.6-37"/>
				<path fill="none" stroke="#006838" stroke-width="2" stroke-miterlimit="10" d="M-45.3,383.2c0,0,48.4-43.9,73.4-47"/>
				<path fill="none" stroke="#006838" stroke-width="2" stroke-miterlimit="10" d="M-41.1,366.3c0,0,12.4-7.5,30.2-21.4
					c17.8-13.9,46.8-24.9,46.8-24.9"/>
				<path fill="none" stroke="#006838" stroke-width="2" stroke-miterlimit="10" d="M-37.3,345.9c0,0,28.3-9.7,38.3-14.3
					c10-4.7,25.7-16.3,38.7-20"/>
				<path fill="none" stroke="#006838" stroke-width="2" stroke-miterlimit="10" d="M-36.2,337.1c0,0,32.4-19.3,48.2-26.7
					c15.8-7.4,34.1-14,34.1-14"/>
				<path fill="none" stroke="#006838" stroke-width="2" stroke-miterlimit="10" d="M-35,327.3c0,0,31.9-15.2,44.6-21
					s38.9-15.9,38.9-15.9"/>
				<path fill="none" stroke="#006838" stroke-width="2" stroke-miterlimit="10" d="M-34,317.9c0,0,32.3-19.3,49.7-28.1
					S54,274.2,54,274.2"/>
				<path fill="none" stroke="#006838" stroke-width="2" stroke-miterlimit="10" d="M-32.7,305.5c0,0,22.1-9.2,43.4-20.4
					s44.1-13.7,44.1-13.7"/>
				<path fill="none" stroke="#006838" stroke-width="2" stroke-miterlimit="10" d="M-31.6,294.9c0,0,35.2-19.3,51-26.7
					s38.2-13.5,38.2-13.5"/>
				<path fill="none" stroke="#006838" stroke-width="2" stroke-miterlimit="10" d="M-30.7,286.7c0,0,21.4-8.9,36.2-19.7
					S57,248.4,57,248.4"/>
				<path fill="none" stroke="#006838" stroke-width="2" stroke-miterlimit="10" d="M-29.8,278.7c0,0,17.3-9.9,34.4-21.8
					s46.8-31.2,46.8-31.2"/>
				<path fill="none" stroke="#006838" stroke-width="2" stroke-miterlimit="10" d="M-28.5,268.2c0,0,7.7-7.8,28.1-21.9
					C20,232,47.6,214.1,47.6,214.1"/>
				<path fill="none" stroke="#006838" stroke-width="2" stroke-miterlimit="10" d="M-26.7,254c0,0,10.8-8.3,29.5-18.8
					s41.3-32.3,41.3-32.3"/>
				<path fill="none" stroke="#006838" stroke-width="2" stroke-miterlimit="10" d="M-25.4,244.4c0,0,16.3-17,33.9-28
					s33-22.7,33-22.7"/>
				<path fill="none" stroke="#006838" stroke-width="2" stroke-miterlimit="10" d="M-23.8,234.1c0,0,19.3-19.8,32.3-28.7
					S38.6,175,38.6,175"/>
				<path fill="none" stroke="#006838" stroke-width="2" stroke-miterlimit="10" d="M-22.1,223.6c0,0,17.1-20.1,28.9-30.1
					c11.9-10,35.9-41.7,35.9-41.7"/>
				<path fill="none" stroke="#006838" stroke-width="2" stroke-miterlimit="10" d="M-19.5,208.9c0,0,18.9-19.6,30.8-30.2
					c11.8-10.5,24.7-38.2,34-46.7"/>
				<path fill="none" stroke="#006838" stroke-width="2" stroke-miterlimit="10" d="M-15.4,188.1c0,0,10.4-11.7,25.2-24.1
					s35.6-38.3,35.6-38.3"/>
				<path fill="none" stroke="#006838" stroke-width="2" stroke-miterlimit="10" d="M-11.9,172.9c0,0,10.8-11.6,24.6-25.6
					s32.5-27.9,32.5-27.9"/>
				<path fill="none" stroke="#006838" stroke-width="2" stroke-miterlimit="10" d="M-6.5,152.1c0,0,11.1-17.8,21.3-27.6
					s28.1-22.3,28.1-22.3"/>
				<path fill="none" stroke="#006838" stroke-width="2" stroke-miterlimit="10" d="M-9.4,162.9c0,0,5.8-3.2,19.2-20.6
					S44,108.5,44,108.5"/>
				<path fill="none" stroke="#006838" stroke-width="2" stroke-miterlimit="10" d="M1.3,127.5c0,0,7.8-12.5,19.3-22.8
					s21.8-15.5,21.8-15.5"/>
				<path fill="none" stroke="#006838" stroke-width="2" stroke-miterlimit="10" d="M8.9,107.3c0,0,10.1-11.8,19.8-17.4
					c9.7-5.7,19.2-21,19.2-21"/>
				<path fill="none" stroke="#006838" stroke-width="2" stroke-miterlimit="10" d="M16.9,89.3c0,0,9.2-12.6,16.9-18.5
					s18.5-16.2,18.5-16.2"/>
				<line fill="none" stroke="#006838" stroke-width="2" stroke-miterlimit="10" x1="28.5" y1="67.7" x2="54.4" y2="42.7"/>
				<path fill="none" stroke="#006838" stroke-width="2" stroke-miterlimit="10" d="M-30.3,282.9c0,0,32.1-21.9,42.8-26.9
					c10.7-5.1,41.9-19.7,41.9-19.7"/>
				<path fill="none" stroke="#006838" stroke-width="2" stroke-miterlimit="10" d="M-48.2,398.5c0,0,16.8-6.6,29.2-13.7
					s34.2-20,34.2-20"/>
				<path fill="none" stroke="#006838" stroke-width="2" stroke-miterlimit="10" d="M-16.8,78.1c0,0,6.3,17,10.4,22.2
					c4.1,5.2,7.5,9.1,7.5,9.1"/>
				<path fill="none" stroke="#006838" stroke-width="2" stroke-miterlimit="10" d="M-11.2,69c0,0,4.3,20.1,14.3,36.4"/>
				<path fill="none" stroke="#006838" stroke-width="2" stroke-miterlimit="10" d="M-4.3,60.1c0,0,1.5,17.7,3.1,25.8
					s6.3,15.7,6.3,15.7"/>
				<path fill="none" stroke="#006838" stroke-width="2" stroke-miterlimit="10" d="M7.9,96.2c0,0-4.3-20-3.5-28.1
					s3.1-16.2,3.1-16.2"/>
				<path fill="none" stroke="#006838" stroke-width="2" stroke-miterlimit="10" d="M15.6,48.1c0,0-6.7,26.9-2.2,38.4"/>
				<path fill="none" stroke="#006838" stroke-width="2" stroke-miterlimit="10" d="M18.1,78.9c0,0,6.5-21,7-35.1"/>
				<line fill="none" stroke="#006838" stroke-width="2" stroke-miterlimit="10" x1="31.4" y1="40.8" x2="29.7" y2="61.7"/>
				<path fill="none" stroke="#006838" stroke-width="2" stroke-miterlimit="10" d="M34.6,55.2c0,0-1.7-7.9,6.3-17.9"/>
			</g>
			<g>
				<path fill="#A0BE8C" stroke="#0F6032" stroke-width="2" stroke-miterlimit="10" d="M723.4,260.9c8.5,3.8,15.2,10,21.6,16.5
					c0.6,21.4-1.6,43.1-1.6,43.1c4.9-10.2,8.1-23.2,10.1-34.2c4.5,4.5,9.2,8.7,14.7,12.1c16.9,10.3,41.4,21.8,47.8,50
					c6.4,28.2,34.4,42.4,47,68.6c2.5,5.1,4.5,10.8,6.4,16.9c-15.6,27.4-30.3,62.4-30.3,62.4s14.6-27.4,23.7-38.7
					c2.5-3.2,6.1-7.3,9.9-11.7c1.4,5.5,2.6,11.2,3.8,16.7l-33.2,43.6l35.2-34.5c2.7,12.7,5.2,24.1,8.5,31.4
					c8,17.7,51.5,71,10.1,103.6c-0.1,0.1-0.1,0.1-0.2,0.2c0.1-0.1,0.2-0.2,0.2-0.2l-13.8,11.5c0,0-38.3,17.7-57.7,0.8
					c-13.1-11.3-19.8-26.6-25.1-42.3c10.7,1.3,59.9,7,68.2,6.7c0,0-52.4-9.9-70.7-14c-3.1-8.4-6.6-16.1-12.2-21.3
					c-17-16.2-53.6-56.8-63-78.6c-9.3-21.8,3.2-72.5-9.1-93.8c-12.3-21.3-19.4-36-21.7-60.7c-2.3-24.7-23.8-33.8-31.2-63.6
					C660.9,251.5,705.2,252.8,723.4,260.9z"/>
				<path fill="#A8B07F" stroke="#0D6132" stroke-width="2" stroke-miterlimit="10" d="M911.2,640.5c3.9,11.9-17.5,6.1-17.5,6.1
					s-21.4-64.6-45.8-102.3s-76.3-227.4-187-292.8c0,0,58,28.2,105.5,99.6c47.5,71.4,78.9,165.6,89.1,181.8
					C865.7,549,899.3,603.7,911.2,640.5z"/>
				<path fill="none" stroke="#006838" stroke-width="2" stroke-miterlimit="10" d="M862,569.3c0,0-40.9-16.1-72.5-17"/>
				<path fill="none" stroke="#006838" stroke-width="2" stroke-miterlimit="10" d="M856.7,559.3c0,0-58.9-28.3-83.7-24.2"/>
				<path fill="none" stroke="#006838" stroke-width="2" stroke-miterlimit="10" d="M847.9,544.3c0,0-14-3.7-35-11.9
					c-21-8.2-51.9-10.5-51.9-10.5"/>
				<path fill="none" stroke="#006838" stroke-width="2" stroke-miterlimit="10" d="M838.4,525.8c0,0-29.9-1.2-40.8-2.8
					c-10.9-1.6-29.2-8.3-42.8-8.2"/>
				<path fill="none" stroke="#006838" stroke-width="2" stroke-miterlimit="10" d="M834.8,517.7c0,0-36.5-9.3-53.8-11.9
					c-17.3-2.6-36.7-3.7-36.7-3.7"/>
				<path fill="none" stroke="#006838" stroke-width="2" stroke-miterlimit="10" d="M831,508.6c0,0-34.9-5.5-48.8-7.4
					c-13.9-1.9-41.8-4.2-41.8-4.2"/>
				<path fill="none" stroke="#006838" stroke-width="2" stroke-miterlimit="10" d="M827.3,499.9c0,0-36.4-9.3-55.6-12.7
					s-41.2-4.1-41.2-4.1"/>
				<path fill="none" stroke="#006838" stroke-width="2" stroke-miterlimit="10" d="M822.5,488.4c0,0-23.9-2.5-47.4-7.2
					c-23.6-4.7-46.2-0.6-46.2-0.6"/>
				<path fill="none" stroke="#006838" stroke-width="2" stroke-miterlimit="10" d="M818.4,478.5c0,0-39.2-8.4-56.5-11
					c-17.2-2.6-40.5-2.1-40.5-2.1"/>
				<path fill="none" stroke="#006838" stroke-width="2" stroke-miterlimit="10" d="M815.2,471c0,0-23-2.4-40.3-8.6
					s-54.7-3.2-54.7-3.2"/>
				<path fill="none" stroke="#006838" stroke-width="2" stroke-miterlimit="10" d="M812.1,463.5c0,0-19.4-4.5-39.2-11.1
					c-19.7-6.5-53.7-16.6-53.7-16.6"/>
				<path fill="none" stroke="#006838" stroke-width="2" stroke-miterlimit="10" d="M807.8,453.8c0,0-9.6-5.3-33.2-13
					c-23.6-7.8-55.3-17.1-55.3-17.1"/>
				<path fill="none" stroke="#006838" stroke-width="2" stroke-miterlimit="10" d="M802,440.7c0,0-12.7-4.9-33.6-9.6
					c-20.9-4.7-48.8-19.2-48.8-19.2"/>
				<path fill="none" stroke="#006838" stroke-width="2" stroke-miterlimit="10" d="M798.1,431.9c0,0-20.4-11.6-40.5-17.2
					s-38.1-12.4-38.1-12.4"/>
				<path fill="none" stroke="#006838" stroke-width="2" stroke-miterlimit="10" d="M793.6,422.4c0,0-24.1-13.5-39.1-18.3
					c-15-4.8-37.5-20.5-37.5-20.5"/>
				<path fill="none" stroke="#006838" stroke-width="2" stroke-miterlimit="10" d="M789,412.9c0,0-22.1-14.4-36.3-20.7
					c-14.2-6.2-46.3-29.8-46.3-29.8"/>
				<path fill="none" stroke="#006838" stroke-width="2" stroke-miterlimit="10" d="M782.4,399.5c0,0-23.7-13.4-38.1-20.2
					c-14.4-6.7-34.6-29.5-45.9-35"/>
				<path fill="none" stroke="#006838" stroke-width="2" stroke-miterlimit="10" d="M772.4,380.7c0,0-13.2-8.2-31-16
					c-17.8-7.8-45.1-26.6-45.1-26.6"/>
				<path fill="none" stroke="#006838" stroke-width="2" stroke-miterlimit="10" d="M764.8,367.2c0,0-13.6-8-30.9-17.5
					s-39.1-17.5-39.1-17.5"/>
				<path fill="none" stroke="#006838" stroke-width="2" stroke-miterlimit="10" d="M753.6,348.8c0,0-15.7-13.9-28.3-20.4
					c-12.6-6.5-33.2-13.4-33.2-13.4"/>
				<path fill="none" stroke="#006838" stroke-width="2" stroke-miterlimit="10" d="M759.5,358.3c0,0-6.5-1.5-24.3-14.2
					s-42.4-22.6-42.4-22.6"/>
				<path fill="none" stroke="#006838" stroke-width="2" stroke-miterlimit="10" d="M739.2,327.5c0,0-11.1-9.7-25-16.4
					c-13.9-6.7-25.3-8.7-25.3-8.7"/>
				<path fill="none" stroke="#006838" stroke-width="2" stroke-miterlimit="10" d="M726.2,310.2c0,0-13-8.4-23.9-11.1
					c-10.9-2.7-24.4-14.7-24.4-14.7"/>
				<path fill="none" stroke="#006838" stroke-width="2" stroke-miterlimit="10" d="M713.4,295.3c0,0-12.4-9.5-21.4-12.9
					c-9-3.4-22.4-10.2-22.4-10.2"/>
				<line fill="none" stroke="#006838" stroke-width="2" stroke-miterlimit="10" x1="696.1" y1="277.9" x2="664.1" y2="261.3"/>
				<path fill="none" stroke="#006838" stroke-width="2" stroke-miterlimit="10" d="M813.7,467.4c0,0-37-11.8-48.7-13.6
					s-45.8-6.9-45.8-6.9"/>
				<path fill="none" stroke="#006838" stroke-width="2" stroke-miterlimit="10" d="M863.9,573.1c0,0-18-1.6-31.9-4.8
					c-13.9-3.3-38.4-9.4-38.4-9.4"/>
				<path fill="none" stroke="#006838" stroke-width="2" stroke-miterlimit="10" d="M757.5,290.1c0,0-1.3,8-2.7,17.5
					c-1.4,9.6-5.6,20-5.6,20"/>
				<path fill="none" stroke="#006838" stroke-width="2" stroke-miterlimit="10" d="M765.2,296.4c0,0-5,14.8-6.8,20.9
					c-1.8,6.1-5.1,15.6-5.1,15.6"/>
				<path fill="none" stroke="#006838" stroke-width="2" stroke-miterlimit="10" d="M770.9,300c0,0-3.7,19.5-6.5,26
					c-2.8,6.6-5.8,13.9-5.8,13.9"/>
				<path fill="none" stroke="#006838" stroke-width="2" stroke-miterlimit="10" d="M778,304.2c0,0-5,25.5-14,41.4"/>
				<path fill="none" stroke="#006838" stroke-width="2" stroke-miterlimit="10" d="M785.1,308.6c0,0-5.8,16.1-8.9,23.1
					c-3.1,7-7.9,22.3-7.9,22.3"/>
				<path fill="none" stroke="#006838" stroke-width="2" stroke-miterlimit="10" d="M793.8,314.8c0,0-4.6,11.1-8.9,20.6
					s-8.6,31.3-8.6,31.3"/>
				<path fill="none" stroke="#006838" stroke-width="2" stroke-miterlimit="10" d="M798.7,319.1c0,0-3.6,17.5-9.2,33.2
					s-9,21.5-9,21.5"/>
				<path fill="none" stroke="#006838" stroke-width="2" stroke-miterlimit="10" d="M807.6,329.1c0,0-6.9,13-9.5,24.5
					c-2.6,11.4-9.7,33.9-9.7,33.9"/>
				<path fill="none" stroke="#006838" stroke-width="2" stroke-miterlimit="10" d="M814.3,342.1c0,0-9,15.1-12.1,22.7
					c-3.1,7.6-11.2,27.5-11.2,27.5"/>
				<path fill="none" stroke="#006838" stroke-width="2" stroke-miterlimit="10" d="M816.7,350.7c0,0-0.4,8.8-6.5,23.4
					c-6.2,14.5-13.7,28.5-13.7,28.5"/>
				<path fill="none" stroke="#006838" stroke-width="2" stroke-miterlimit="10" d="M819.7,358.8c0,0,1.2,3.4-2.5,16.3
					c-3.7,12.9-17.3,34.1-17.3,34.1"/>
				<path fill="none" stroke="#006838" stroke-width="2" stroke-miterlimit="10" d="M742.4,274.9c0,0-1.2,18.1-3.7,24.2
					c-2.5,6.2-4.6,10.9-4.6,10.9"/>
				<path fill="none" stroke="#006838" stroke-width="2" stroke-miterlimit="10" d="M734.5,267.8c0,0,1.6,20.5-3.4,39"/>
				<path fill="none" stroke="#006838" stroke-width="2" stroke-miterlimit="10" d="M725.3,261.2c0,0,3.6,17.3,4.4,25.6
					c0.8,8.3-1.5,16.8-1.5,16.8"/>
				<path fill="none" stroke="#006838" stroke-width="2" stroke-miterlimit="10" d="M723.9,299.3c0,0-1.6-20.4-4.7-28
					s-7.6-14.6-7.6-14.6"/>
				<path fill="none" stroke="#006838" stroke-width="2" stroke-miterlimit="10" d="M702.8,255.5c0,0,14.1,23.9,13.1,36.2"/>
				<path fill="none" stroke="#006838" stroke-width="2" stroke-miterlimit="10" d="M709.2,285.6c0,0-12.2-18.3-16.7-31.7"/>
				<line fill="none" stroke="#006838" stroke-width="2" stroke-miterlimit="10" x1="685.6" y1="252.9" x2="693.2" y2="272.5"/>
				<path fill="none" stroke="#006838" stroke-width="2" stroke-miterlimit="10" d="M686.7,267.6c0,0-0.6-8-11.1-15.4"/>
			</g>
		</g>
	</g>
</g>
</svg>
